<svg width="30" height="30" viewBox="0 0 30 30" fill="none" xmlns="http://www.w3.org/2000/svg">
     <g id="logoGradientSvg">
         <g clip-path="url(#clip0_116119_238)">
            <path d="M12.5581 0V3.83066C11.5028 3.83066 10.6796 3.98157 10.0882 4.28338C9.49679 4.57357 9.24169 5.15977 9.32287 6.04199L9.86206 11.1785C10.0012 12.4786 9.85626 13.5292 9.42722 14.3301C9.00978 15.131 8.36623 15.7464 7.49655 16.1758C6.63848 16.5937 5.62386 16.8897 4.45271 17.0638C5.69343 17.2495 6.74284 17.5514 7.60092 17.9693C8.45899 18.3871 9.08516 18.9907 9.4794 19.7801C9.87365 20.5695 10.0012 21.6258 9.86206 22.9492L9.32287 28.0857C9.24169 28.9679 9.49679 29.5541 10.0882 29.8443C10.6796 30.146 11.5028 30.297 12.5581 30.297V34.1277C9.35765 34.1277 7.1081 33.6401 5.80939 32.6651C4.52229 31.7016 4.00048 30.0475 4.24398 27.7026L4.76579 22.7227C4.85856 21.8406 4.70782 21.1499 4.31357 20.6507C3.93091 20.1516 3.36272 19.8033 2.60901 19.6059C1.85529 19.3971 0.985626 19.2926 0 19.2926V14.8351C0.97403 14.8351 1.8379 14.7364 2.59162 14.5391C3.34533 14.3301 3.91932 13.9761 4.31357 13.477C4.70782 12.9778 4.85856 12.2871 4.76579 11.4049L4.24398 6.45987C3.98889 4.06861 4.51068 2.39706 5.80939 1.4452C7.1081 0.481734 9.35765 0 12.5581 0Z" fill="url(#paint0_linear_116119_238)" />
            <path d="M27.633 4.50977C30.5087 4.50977 32.6771 5.62414 34.1381 7.85288C35.6108 10.07 36.3471 13.1636 36.3471 17.1335C36.3471 21.115 35.6108 24.2318 34.1381 26.4838C32.6771 28.7242 30.5087 29.8443 27.633 29.8443C24.7342 29.8443 22.5541 28.7242 21.0931 26.4838C19.6436 24.2318 18.9189 21.115 18.9189 17.1335C18.9189 13.1636 19.6436 10.07 21.0931 7.85288C22.5541 5.62414 24.7342 4.50977 27.633 4.50977ZM27.633 8.49713C26.4039 8.49713 25.5052 9.15879 24.937 10.4821C24.3689 11.7938 24.0847 14.0109 24.0847 17.1335C24.0847 18.1551 24.1022 19.0663 24.1369 19.8672C24.1718 20.6566 24.224 21.3589 24.2935 21.9741L30.1724 9.66374C29.8942 9.22264 29.5463 8.92083 29.1289 8.75831C28.7231 8.5842 28.2244 8.49713 27.633 8.49713ZM31.1465 17.1335C31.1465 15.7986 31.1175 14.6726 31.0595 13.7555L25.511 25.2302C25.7662 25.4739 26.0676 25.6422 26.4154 25.7351C26.775 25.8279 27.1808 25.8744 27.633 25.8744C28.4564 25.8744 29.1231 25.5958 29.6333 25.0387C30.1551 24.4815 30.5377 23.5644 30.7812 22.2875C31.0248 20.999 31.1465 19.281 31.1465 17.1335Z" fill="url(#paint1_linear_116119_238)" />
            <path d="M48.4999 4.50977C51.3757 4.50977 53.544 5.62414 55.0051 7.85288C56.4777 10.07 57.214 13.1636 57.214 17.1335C57.214 21.115 56.4777 24.2318 55.0051 26.4838C53.544 28.7242 51.3757 29.8443 48.4999 29.8443C45.601 29.8443 43.4211 28.7242 41.96 26.4838C40.5106 24.2318 39.7859 21.115 39.7859 17.1335C39.7859 13.1636 40.5106 10.07 41.96 7.85288C43.4211 5.62414 45.601 4.50977 48.4999 4.50977ZM48.4999 8.49713C47.2709 8.49713 46.3722 9.15879 45.8039 10.4821C45.2358 11.7938 44.9517 14.0109 44.9517 17.1335C44.9517 18.1551 44.9691 19.0663 45.0039 19.8672C45.0386 20.6566 45.0908 21.3589 45.1604 21.9741L51.0394 9.66374C50.761 9.22264 50.4132 8.92083 49.9958 8.75831C49.5899 8.5842 49.0913 8.49713 48.4999 8.49713ZM52.0134 17.1335C52.0134 15.7986 51.9844 14.6726 51.9265 13.7555L46.378 25.2302C46.633 25.4739 46.9345 25.6422 47.2824 25.7351C47.6419 25.8279 48.0477 25.8744 48.4999 25.8744C49.3232 25.8744 49.9899 25.5958 50.5002 25.0387C51.0219 24.4815 51.4046 23.5644 51.6481 22.2875C51.8916 20.999 52.0134 19.281 52.0134 17.1335Z" fill="url(#paint2_linear_116119_238)" />
            <path d="M68.1146 29.8095L62.8966 28.1902L71.889 9.26321H61.2964V5.11914H77.4549V8.84532L68.1146 29.8095Z" fill="url(#paint3_linear_116119_238)" />
            <path d="M84.4419 0C87.6423 0 89.8861 0.481734 91.1732 1.4452C92.4719 2.40867 92.9995 4.06862 92.756 6.42505L92.2342 11.4049C92.1414 12.2871 92.2921 12.9778 92.6864 13.477C93.0807 13.9761 93.6488 14.3301 94.3909 14.5391C95.1447 14.7364 96.0144 14.8351 97 14.8351V19.2926C96.0259 19.2926 95.1621 19.3971 94.4083 19.6059C93.6547 19.8033 93.0807 20.1516 92.6864 20.6507C92.2921 21.1499 92.1414 21.8406 92.2342 22.7227L92.756 27.6678C93.0227 30.0475 92.5009 31.719 91.1905 32.6824C89.8918 33.646 87.6423 34.1277 84.4419 34.1277V30.297C85.5088 30.297 86.3378 30.146 86.9291 29.8443C87.5206 29.5541 87.7699 28.9679 87.6772 28.0857L87.1379 22.9492C86.9988 21.6374 87.1379 20.5868 87.5553 19.7976C87.9844 18.9965 88.6338 18.3871 89.5035 17.9693C90.373 17.5397 91.3935 17.238 92.5646 17.0638C91.3239 16.8781 90.2688 16.5763 89.3991 16.1584C88.5409 15.7405 87.9149 15.1369 87.5206 14.3476C87.1263 13.5466 86.9988 12.4903 87.1379 11.1785L87.6772 6.04199C87.7699 5.15977 87.5147 4.57357 86.9118 4.28338C86.3204 3.98157 85.4971 3.83066 84.4419 3.83066V0Z" fill="url(#paint4_linear_116119_238)" />
            <path d="M12.2746 42.1621C13.2417 42.1621 14.0209 42.4024 14.6122 42.883C15.2037 43.3635 15.635 44.0426 15.9064 44.9202C16.1846 45.7977 16.3238 46.839 16.3238 48.0439C16.3238 49.1862 16.1568 50.2065 15.8229 51.1049C15.4889 51.9964 15.0054 52.6999 14.3723 53.2153C13.7391 53.7238 12.9703 53.978 12.0659 53.978C10.9875 53.978 10.1108 53.5914 9.43597 52.8182V57.9061L6.13818 58.2509V42.5278H9.06028L9.20639 43.771C9.65862 43.1929 10.1526 42.782 10.6883 42.5382C11.224 42.2875 11.7528 42.1621 12.2746 42.1621ZM11.2519 44.5964C10.8692 44.5964 10.5318 44.7113 10.2396 44.9411C9.94735 45.1709 9.67948 45.4843 9.43597 45.8813V50.5617C9.66557 50.903 9.9056 51.1537 10.1561 51.3139C10.4135 51.474 10.7161 51.5542 11.064 51.5542C11.6484 51.5542 12.1041 51.2895 12.4312 50.7601C12.7582 50.2238 12.9216 49.3325 12.9216 48.0857C12.9216 47.1663 12.8555 46.456 12.7233 45.9545C12.5912 45.4461 12.3999 45.0943 12.1493 44.8993C11.8989 44.6973 11.5997 44.5964 11.2519 44.5964Z" fill="url(#paint5_linear_116119_238)" />
            <path d="M27.9881 50.4259C27.9881 50.8437 28.0437 51.1467 28.1551 51.3348C28.2733 51.5228 28.4612 51.6657 28.7186 51.7631L28.0403 53.9362C27.3862 53.8735 26.8332 53.7307 26.3809 53.5078C25.9356 53.278 25.5843 52.9332 25.3269 52.4736C24.9025 52.982 24.3598 53.3615 23.6989 53.6123C23.0379 53.856 22.3631 53.978 21.6743 53.978C20.5332 53.978 19.6218 53.6541 18.94 53.0063C18.2651 52.3517 17.9277 51.5124 17.9277 50.4886C17.9277 49.2837 18.3974 48.3538 19.3366 47.6991C20.2827 47.0445 21.6116 46.7172 23.3231 46.7172H24.8155V46.2992C24.8155 45.164 24.085 44.5964 22.6239 44.5964C22.2692 44.5964 21.8134 44.6486 21.2568 44.7531C20.7002 44.8505 20.1436 44.9932 19.587 45.1813L18.8252 42.9875C19.5419 42.7159 20.2863 42.5103 21.0585 42.3711C21.8377 42.2318 22.5335 42.1621 23.1457 42.1621C24.7946 42.1621 26.0121 42.4999 26.7983 43.1754C27.5915 43.8441 27.9881 44.8122 27.9881 46.0798V50.4259ZM22.8117 51.6169C23.1666 51.6169 23.5389 51.5124 23.9285 51.3034C24.3181 51.0876 24.6137 50.7846 24.8155 50.3946V48.5977H24.0015C23.0831 48.5977 22.4083 48.7404 21.9769 49.0259C21.5456 49.3045 21.3299 49.7155 21.3299 50.2588C21.3299 50.6836 21.4585 51.0179 21.716 51.2616C21.9804 51.4985 22.3457 51.6169 22.8117 51.6169Z" fill="url(#paint6_linear_116119_238)" />
            <path d="M41.6355 42.5276L37.9412 53.6225H34.059L30.3228 42.5276H33.8815L36.0418 51.0943L38.2959 42.5276H41.6355Z" fill="url(#paint7_linear_116119_238)" />
            <path d="M53.0286 50.4259C53.0286 50.8437 53.0843 51.1467 53.1956 51.3348C53.3139 51.5228 53.5017 51.6657 53.7591 51.7631L53.0808 53.9362C52.4267 53.8735 51.8737 53.7307 51.4215 53.5078C50.9762 53.278 50.6249 52.9332 50.3674 52.4736C49.9431 52.982 49.4003 53.3615 48.7394 53.6123C48.0784 53.856 47.4036 53.978 46.7148 53.978C45.5738 53.978 44.6623 53.6541 43.9805 53.0063C43.3057 52.3517 42.9683 51.5124 42.9683 50.4886C42.9683 49.2837 43.4379 48.3538 44.3771 47.6991C45.3233 47.0445 46.6522 46.7172 48.3637 46.7172H49.856V46.2992C49.856 45.164 49.1255 44.5964 47.6645 44.5964C47.3097 44.5964 46.8539 44.6486 46.2973 44.7531C45.7407 44.8505 45.1842 44.9932 44.6276 45.1813L43.8658 42.9875C44.5824 42.7159 45.3268 42.5103 46.099 42.3711C46.8783 42.2318 47.574 42.1621 48.1862 42.1621C49.8351 42.1621 51.0527 42.4999 51.8388 43.1754C52.632 43.8441 53.0286 44.8122 53.0286 46.0798V50.4259ZM47.8523 51.6169C48.2071 51.6169 48.5794 51.5124 48.969 51.3034C49.3586 51.0876 49.6543 50.7846 49.856 50.3946V48.5977H49.0421C48.1236 48.5977 47.4488 48.7404 47.0175 49.0259C46.5861 49.3045 46.3704 49.7155 46.3704 50.2588C46.3704 50.6836 46.4992 51.0179 46.7565 51.2616C47.0209 51.4985 47.3862 51.6169 47.8523 51.6169Z" fill="url(#paint8_linear_116119_238)" />
            <path d="M56.2188 53.6227V42.5278H59.0992L59.3288 43.8128C59.8227 43.2556 60.3444 42.8412 60.8942 42.5696C61.4437 42.2979 62.0699 42.1621 62.7726 42.1621C63.7188 42.1621 64.4633 42.4511 65.006 43.0293C65.5486 43.6074 65.8199 44.4222 65.8199 45.4739V53.6227H62.5222V46.4246C62.5222 45.7421 62.4457 45.2685 62.2925 45.0037C62.1464 44.7322 61.8682 44.5964 61.4576 44.5964C61.1098 44.5964 60.7759 44.7077 60.4558 44.9307C60.1427 45.1535 59.8296 45.4634 59.5166 45.8604V53.6227H56.2188Z" fill="url(#paint9_linear_116119_238)" />
            <path d="M76.9314 42.1621C77.7174 42.1621 78.2985 42.4199 78.6742 42.9353C79.0568 43.4436 79.2481 44.269 79.2481 45.4112V53.6227H76.42V45.7873C76.42 45.3973 76.3817 45.1222 76.3052 44.962C76.2356 44.8017 76.0894 44.7217 75.8668 44.7217C75.693 44.7217 75.512 44.774 75.3241 44.8784C75.1433 44.9759 74.9415 45.164 74.7189 45.4425V53.6227H72.4021V45.7873C72.4021 45.3973 72.3638 45.1222 72.2873 44.962C72.2177 44.8017 72.0716 44.7217 71.8489 44.7217C71.6751 44.7217 71.4941 44.774 71.3062 44.8784C71.1254 44.9759 70.9236 45.164 70.701 45.4425V53.6227H67.8311V42.5278H70.2522L70.4714 43.6038C70.8193 43.1302 71.1707 42.7715 71.5254 42.5278C71.8803 42.284 72.3012 42.1621 72.7882 42.1621C73.2056 42.1621 73.5604 42.27 73.8527 42.486C74.1519 42.695 74.3641 43.0257 74.4893 43.4784C74.8233 43.0884 75.192 42.7715 75.5955 42.5278C75.9991 42.284 76.4443 42.1621 76.9314 42.1621Z" fill="url(#paint10_linear_116119_238)" />
            <path d="M91.1004 40.7517L91.8728 43.1754C91.4832 43.3287 91.0274 43.4401 90.5057 43.5097C89.9838 43.5794 89.3751 43.6142 88.6794 43.6142C89.3751 43.9137 89.9038 44.2863 90.2656 44.7321C90.6344 45.1708 90.8187 45.7489 90.8187 46.4664C90.8187 47.1837 90.6274 47.8245 90.2448 48.3886C89.862 48.9458 89.3195 49.3846 88.6168 49.705C87.9141 50.0254 87.0826 50.1856 86.1225 50.1856C85.6633 50.1856 85.2354 50.1438 84.8389 50.0602C84.7205 50.1229 84.6302 50.2133 84.5676 50.3318C84.5049 50.4502 84.4736 50.5721 84.4736 50.6975C84.4736 50.8716 84.5431 51.0283 84.6824 51.1675C84.8285 51.3069 85.1659 51.3765 85.6946 51.3765H87.5105C88.3732 51.3765 89.1176 51.5158 89.7438 51.7944C90.3769 52.0729 90.8674 52.4526 91.2153 52.9331C91.5631 53.4137 91.7371 53.964 91.7371 54.5839C91.7371 55.7191 91.2397 56.6141 90.2448 57.2688C89.2498 57.9234 87.7714 58.2509 85.8094 58.2509C84.3901 58.2509 83.2908 58.1046 82.5117 57.8121C81.7393 57.5265 81.2002 57.1156 80.8941 56.5792C80.5949 56.0499 80.4453 55.4196 80.4453 54.6882H83.3673C83.3673 55.0087 83.43 55.2699 83.5552 55.4718C83.6874 55.6808 83.9344 55.8341 84.2962 55.9315C84.6649 56.029 85.1972 56.0778 85.8929 56.0778C86.5956 56.0778 87.1313 56.022 87.5 55.9107C87.8688 55.7992 88.1192 55.646 88.2515 55.4509C88.3906 55.2629 88.4602 55.0505 88.4602 54.8136C88.4602 54.4863 88.3314 54.2217 88.0741 54.0197C87.8166 53.8178 87.4097 53.7167 86.853 53.7167H85.0893C83.8926 53.7167 83.0229 53.4973 82.4803 53.0585C81.9376 52.6128 81.6663 52.0938 81.6663 51.5019C81.6663 51.091 81.7741 50.701 81.9898 50.3318C82.2124 49.9627 82.5221 49.6527 82.9187 49.402C82.209 49.0258 81.701 48.5836 81.3949 48.0752C81.0888 47.5598 80.9358 46.9434 80.9358 46.226C80.9358 45.3902 81.148 44.6729 81.5724 44.0739C81.9968 43.4679 82.5811 43.0013 83.3256 42.674C84.077 42.3467 84.9329 42.1829 85.8929 42.1829C86.7208 42.1968 87.441 42.1412 88.0532 42.0158C88.6654 41.8834 89.2151 41.7059 89.7021 41.4829C90.189 41.2531 90.6552 41.0093 91.1004 40.7517ZM85.9764 44.3246C85.4546 44.3246 85.0406 44.4918 84.7345 44.8262C84.4283 45.1535 84.2753 45.6062 84.2753 46.1843C84.2753 46.7971 84.4319 47.2673 84.745 47.5946C85.058 47.9219 85.4686 48.0857 85.9764 48.0857C87.1034 48.0857 87.667 47.4379 87.667 46.1425C87.667 44.9306 87.1034 44.3246 85.9764 44.3246Z" fill="url(#paint11_linear_116119_238)" />
        </g>
        <defs>
            <linearGradient id="paint0_linear_116119_238" x1="-2.05005" y1="36.7549" x2="99.9719" y2="0.679714" gradientUnits="userSpaceOnUse">
            <stop stop-color="#e80000" />
            <stop offset="1" stop-color="#26d3d1" />
            </linearGradient>
            <linearGradient id="paint1_linear_116119_238" x1="-2.05004" y1="36.755" x2="83.5214" y2="5.05778" gradientUnits="userSpaceOnUse">
            <stop offset="0.182692" stop-color="#e80000" />
            <stop offset="1" stop-color="#26d3d1" />
            </linearGradient>
            <linearGradient id="paint2_linear_116119_238" x1="-2.05013" y1="36.755" x2="81.5187" y2="9.05643" gradientUnits="userSpaceOnUse">
            <stop offset="0.225962" stop-color="#e80000" />
            <stop offset="1" stop-color="#26d3d1" />
            </linearGradient>
            <linearGradient id="paint3_linear_116119_238" x1="-2.05005" y1="36.7549" x2="89.0194" y2="8.06149" gradientUnits="userSpaceOnUse">
            <stop offset="0.259615" stop-color="#e80000" />
            <stop offset="1" stop-color="#26d3d1" />
            </linearGradient>
            <linearGradient id="paint4_linear_116119_238" x1="-2.05008" y1="36.7549" x2="97.0224" y2="3.5669" gradientUnits="userSpaceOnUse">
            <stop stop-color="#e80000" />
            <stop offset="1" stop-color="#26d3d1" />
            </linearGradient>
            <linearGradient id="paint5_linear_116119_238" x1="-0.244359" y1="59.3455" x2="93.6381" y2="39.507" gradientUnits="userSpaceOnUse">
            <stop stop-color="#e80000" />
            <stop offset="1" stop-color="#26d3d1" />
            </linearGradient>
            <linearGradient id="paint6_linear_116119_238" x1="-0.24451" y1="59.3455" x2="93.638" y2="39.507" gradientUnits="userSpaceOnUse">
            <stop offset="0.144231" stop-color="#e80000" />
            <stop offset="1" stop-color="#26d3d1" />
            </linearGradient>
            <linearGradient id="paint7_linear_116119_238" x1="-0.24437" y1="59.3453" x2="93.6381" y2="39.5068" gradientUnits="userSpaceOnUse">
            <stop offset="0.144231" stop-color="#e80000" />
            <stop offset="1" stop-color="#26d3d1" />
            </linearGradient>
            <linearGradient id="paint8_linear_116119_238" x1="-0.244339" y1="59.3455" x2="93.6381" y2="39.507" gradientUnits="userSpaceOnUse">
            <stop offset="0.192308" stop-color="#e80000" />
            <stop offset="1" stop-color="#26d3d1" />
            </linearGradient>
            <linearGradient id="paint9_linear_116119_238" x1="-0.244556" y1="59.3455" x2="93.6379" y2="39.507" gradientUnits="userSpaceOnUse">
            <stop offset="0.168269" stop-color="#e80000" />
            <stop offset="1" stop-color="#26d3d1" />
            </linearGradient>
            <linearGradient id="paint10_linear_116119_238" x1="-0.244473" y1="59.3455" x2="93.638" y2="39.507" gradientUnits="userSpaceOnUse">
            <stop offset="0.168269" stop-color="#e80000" />
            <stop offset="1" stop-color="#26d3d1" />
            </linearGradient>
            <linearGradient id="paint11_linear_116119_238" x1="-0.244419" y1="59.3454" x2="96.008" y2="41.0418" gradientUnits="userSpaceOnUse">
            <stop offset="0.211538" stop-color="#e80000" />
            <stop offset="1" stop-color="#26d3d1" />
            </linearGradient>
            <clipPath id="clip0_116119_238">
            <rect width="97" height="59" fill="white" />
            </clipPath>
        </defs>
    </g>
    <g id="logoDarkSvg">
        <g clip-path="url(#clip0_2_5809)">
        <path d="M12.5581 0V3.83066C11.5028 3.83066 10.6796 3.98157 10.0882 4.28338C9.49679 4.57357 9.24169 5.15977 9.32287 6.04199L9.86206 11.1785C10.0012 12.4786 9.85626 13.5292 9.42722 14.3301C9.00978 15.131 8.36623 15.7464 7.49655 16.1758C6.63848 16.5938 5.62386 16.8897 4.45271 17.0638C5.69343 17.2495 6.74284 17.5514 7.60092 17.9693C8.45899 18.3871 9.08516 18.9907 9.47941 19.7801C9.87366 20.5695 10.0012 21.6258 9.86206 22.9492L9.32287 28.0857C9.24169 28.9679 9.49679 29.5541 10.0882 29.8443C10.6796 30.146 11.5028 30.297 12.5581 30.297V34.1277C9.35765 34.1277 7.1081 33.6401 5.80939 32.6651C4.52229 31.7016 4.00048 30.0475 4.24398 27.7026L4.76579 22.7227C4.85856 21.8406 4.70782 21.1499 4.31357 20.6507C3.93091 20.1516 3.36272 19.8033 2.60901 19.6059C1.85529 19.3971 0.985626 19.2926 0 19.2926V14.8351C0.97403 14.8351 1.8379 14.7364 2.59162 14.5391C3.34533 14.3301 3.91932 13.9761 4.31357 13.477C4.70782 12.9778 4.85856 12.2871 4.76579 11.4049L4.24398 6.45987C3.98889 4.06861 4.51068 2.39706 5.80939 1.4452C7.1081 0.481734 9.35765 0 12.5581 0Z" fill="#42446E"/>
        <path d="M27.633 4.50977C30.5087 4.50977 32.6771 5.62414 34.1381 7.85288C35.6108 10.07 36.3471 13.1636 36.3471 17.1335C36.3471 21.115 35.6108 24.2318 34.1381 26.4838C32.6771 28.7242 30.5087 29.8443 27.633 29.8443C24.7342 29.8443 22.5541 28.7242 21.0931 26.4838C19.6436 24.2318 18.9189 21.115 18.9189 17.1335C18.9189 13.1636 19.6436 10.07 21.0931 7.85288C22.5541 5.62414 24.7342 4.50977 27.633 4.50977ZM27.633 8.49713C26.4039 8.49713 25.5052 9.15879 24.937 10.4821C24.3689 11.7938 24.0847 14.0109 24.0847 17.1335C24.0847 18.1551 24.1022 19.0663 24.1369 19.8672C24.1718 20.6566 24.224 21.3589 24.2935 21.9741L30.1724 9.66374C29.8942 9.22264 29.5463 8.92083 29.1289 8.75831C28.7231 8.5842 28.2244 8.49713 27.633 8.49713ZM31.1465 17.1335C31.1465 15.7986 31.1175 14.6726 31.0595 13.7555L25.511 25.2302C25.7662 25.4739 26.0676 25.6422 26.4154 25.7351C26.775 25.8279 27.1808 25.8744 27.633 25.8744C28.4564 25.8744 29.1231 25.5958 29.6333 25.0387C30.1551 24.4815 30.5377 23.5644 30.7812 22.2875C31.0248 20.999 31.1465 19.281 31.1465 17.1335Z" fill="#42446E"/>
        <path d="M48.5002 4.50977C51.3759 4.50977 53.5443 5.62414 55.0053 7.85288C56.478 10.07 57.2142 13.1636 57.2142 17.1335C57.2142 21.115 56.478 24.2318 55.0053 26.4838C53.5443 28.7242 51.3759 29.8443 48.5002 29.8443C45.6012 29.8443 43.4213 28.7242 41.9603 26.4838C40.5108 24.2318 39.7861 21.115 39.7861 17.1335C39.7861 13.1636 40.5108 10.07 41.9603 7.85288C43.4213 5.62414 45.6012 4.50977 48.5002 4.50977ZM48.5002 8.49713C47.2711 8.49713 46.3724 9.15879 45.8042 10.4821C45.2361 11.7938 44.9519 14.0109 44.9519 17.1335C44.9519 18.1551 44.9694 19.0663 45.0041 19.8672C45.0389 20.6566 45.0911 21.3589 45.1607 21.9741L51.0396 9.66374C50.7613 9.22264 50.4134 8.92083 49.9961 8.75831C49.5901 8.5842 49.0915 8.49713 48.5002 8.49713ZM52.0137 17.1335C52.0137 15.7986 51.9847 14.6726 51.9267 13.7555L46.3782 25.2302C46.6332 25.4739 46.9348 25.6422 47.2826 25.7351C47.6422 25.8279 48.048 25.8744 48.5002 25.8744C49.3234 25.8744 49.9902 25.5958 50.5005 25.0387C51.0222 24.4815 51.4049 23.5644 51.6484 22.2875C51.8919 20.999 52.0137 19.281 52.0137 17.1335Z" fill="#42446E"/>
        <path d="M68.1146 29.8095L62.8966 28.1902L71.889 9.26321H61.2964V5.11914H77.4549V8.84532L68.1146 29.8095Z" fill="#42446E"/>
        <path d="M84.4419 0C87.6423 0 89.8861 0.481734 91.1732 1.4452C92.4719 2.40867 92.9995 4.06862 92.756 6.42505L92.2342 11.4049C92.1414 12.2871 92.2921 12.9778 92.6864 13.477C93.0807 13.9761 93.6488 14.3301 94.3909 14.5391C95.1447 14.7364 96.0144 14.8351 97 14.8351V19.2926C96.0259 19.2926 95.1621 19.3971 94.4083 19.6059C93.6547 19.8033 93.0807 20.1516 92.6864 20.6507C92.2921 21.1499 92.1414 21.8406 92.2342 22.7227L92.756 27.6678C93.0227 30.0475 92.5009 31.719 91.1905 32.6824C89.8918 33.646 87.6423 34.1277 84.4419 34.1277V30.297C85.5088 30.297 86.3378 30.146 86.9291 29.8443C87.5206 29.5541 87.7699 28.9679 87.6772 28.0857L87.1379 22.9492C86.9988 21.6374 87.1379 20.5868 87.5553 19.7976C87.9844 18.9965 88.6338 18.3871 89.5035 17.9693C90.373 17.5397 91.3935 17.238 92.5646 17.0638C91.3239 16.8781 90.2688 16.5763 89.3991 16.1584C88.5409 15.7405 87.9149 15.1369 87.5206 14.3476C87.1263 13.5466 86.9988 12.4903 87.1379 11.1785L87.6772 6.04199C87.7699 5.15977 87.5147 4.57357 86.9118 4.28338C86.3204 3.98157 85.4971 3.83066 84.4419 3.83066V0Z" fill="#42446E"/>
        <path d="M12.2746 42.162C13.2417 42.162 14.0209 42.4023 14.6122 42.8829C15.2037 43.3634 15.635 44.0425 15.9064 44.9201C16.1846 45.7976 16.3238 46.8388 16.3238 48.0438C16.3238 49.1861 16.1568 50.2064 15.8229 51.1048C15.4889 51.9963 15.0054 52.6998 14.3723 53.2151C13.7391 53.7237 12.9703 53.9778 12.0659 53.9778C10.9875 53.9778 10.1108 53.5913 9.43597 52.8181V57.906L6.13818 58.2508V42.5277H9.06028L9.20639 43.7708C9.65862 43.1928 10.1526 42.7819 10.6883 42.5381C11.224 42.2874 11.7528 42.162 12.2746 42.162ZM11.2519 44.5962C10.8692 44.5962 10.5318 44.7112 10.2396 44.941C9.94735 45.1707 9.67948 45.4842 9.43597 45.8812V50.5616C9.66557 50.9028 9.9056 51.1536 10.1561 51.3137C10.4135 51.4739 10.7161 51.554 11.064 51.554C11.6484 51.554 12.1041 51.2894 12.4312 50.76C12.7582 50.2237 12.9216 49.3323 12.9216 48.0856C12.9216 47.1662 12.8555 46.4558 12.7233 45.9543C12.5912 45.446 12.3999 45.0942 12.1493 44.8992C11.8989 44.6971 11.5997 44.5962 11.2519 44.5962Z" fill="#42446E"/>
        <path d="M27.9881 50.4258C27.9881 50.8436 28.0437 51.1466 28.1551 51.3346C28.2733 51.5227 28.4612 51.6655 28.7186 51.763L28.0403 53.9361C27.3862 53.8734 26.8332 53.7305 26.3809 53.5077C25.9356 53.2778 25.5843 52.9331 25.3269 52.4735C24.9025 52.9818 24.3598 53.3614 23.6989 53.6122C23.0379 53.8559 22.3631 53.9778 21.6743 53.9778C20.5332 53.9778 19.6218 53.654 18.94 53.0062C18.2651 52.3515 17.9277 51.5123 17.9277 50.4885C17.9277 49.2835 18.3974 48.3537 19.3366 47.699C20.2827 47.0444 21.6116 46.717 23.3231 46.717H24.8155V46.2991C24.8155 45.1639 24.085 44.5962 22.6239 44.5962C22.2692 44.5962 21.8134 44.6485 21.2568 44.7529C20.7002 44.8504 20.1436 44.9931 19.587 45.1812L18.8252 42.9874C19.5419 42.7157 20.2863 42.5102 21.0585 42.3709C21.8377 42.2317 22.5335 42.162 23.1457 42.162C24.7946 42.162 26.0121 42.4998 26.7983 43.1753C27.5915 43.844 27.9881 44.8121 27.9881 46.0797V50.4258ZM22.8117 51.6167C23.1666 51.6167 23.5389 51.5123 23.9285 51.3033C24.3181 51.0875 24.6137 50.7845 24.8155 50.3945V48.5975H24.0015C23.0831 48.5975 22.4083 48.7402 21.9769 49.0258C21.5456 49.3044 21.3299 49.7153 21.3299 50.2586C21.3299 50.6834 21.4585 51.0178 21.716 51.2615C21.9804 51.4984 22.3457 51.6167 22.8117 51.6167Z" fill="#42446E"/>
        <path d="M41.6355 42.5277L37.9412 53.6227H34.059L30.3228 42.5277H33.8815L36.0418 51.0944L38.2959 42.5277H41.6355Z" fill="#42446E"/>
        <path d="M53.0286 50.4258C53.0286 50.8436 53.0843 51.1466 53.1956 51.3346C53.3139 51.5227 53.5017 51.6655 53.7591 51.763L53.0808 53.9361C52.4267 53.8734 51.8737 53.7305 51.4215 53.5077C50.9762 53.2778 50.6249 52.9331 50.3674 52.4735C49.9431 52.9818 49.4003 53.3614 48.7394 53.6122C48.0784 53.8559 47.4036 53.9778 46.7148 53.9778C45.5738 53.9778 44.6623 53.654 43.9805 53.0062C43.3057 52.3515 42.9683 51.5123 42.9683 50.4885C42.9683 49.2835 43.4379 48.3537 44.3771 47.699C45.3233 47.0444 46.6522 46.717 48.3637 46.717H49.856V46.2991C49.856 45.1639 49.1255 44.5962 47.6645 44.5962C47.3097 44.5962 46.8539 44.6485 46.2973 44.7529C45.7407 44.8504 45.1842 44.9931 44.6276 45.1812L43.8658 42.9874C44.5824 42.7157 45.3268 42.5102 46.099 42.3709C46.8783 42.2317 47.574 42.162 48.1862 42.162C49.8351 42.162 51.0527 42.4998 51.8388 43.1753C52.632 43.844 53.0286 44.8121 53.0286 46.0797V50.4258ZM47.8523 51.6167C48.2071 51.6167 48.5794 51.5123 48.969 51.3033C49.3586 51.0875 49.6543 50.7845 49.856 50.3945V48.5975H49.0421C48.1236 48.5975 47.4488 48.7402 47.0175 49.0258C46.5861 49.3044 46.3704 49.7153 46.3704 50.2586C46.3704 50.6834 46.4992 51.0178 46.7565 51.2615C47.0209 51.4984 47.3862 51.6167 47.8523 51.6167Z" fill="#42446E"/>
        <path d="M56.2188 53.6226V42.5277H59.0992L59.3288 43.8126C59.8227 43.2555 60.3444 42.8411 60.8942 42.5695C61.4437 42.2978 62.0699 42.162 62.7726 42.162C63.7188 42.162 64.4633 42.451 65.006 43.0292C65.5486 43.6072 65.8199 44.4221 65.8199 45.4737V53.6226H62.5222V46.4245C62.5222 45.7419 62.4457 45.2683 62.2925 45.0036C62.1464 44.732 61.8682 44.5962 61.4576 44.5962C61.1098 44.5962 60.7759 44.7076 60.4558 44.9306C60.1427 45.1534 59.8296 45.4633 59.5166 45.8603V53.6226H56.2188Z" fill="#42446E"/>
        <path d="M76.9314 42.162C77.7174 42.162 78.2985 42.4197 78.6742 42.9351C79.0568 43.4435 79.2481 44.2689 79.2481 45.411V53.6226H76.42V45.7872C76.42 45.3972 76.3817 45.1221 76.3052 44.9619C76.2356 44.8016 76.0894 44.7216 75.8668 44.7216C75.693 44.7216 75.512 44.7738 75.3241 44.8783C75.1433 44.9758 74.9415 45.1639 74.7189 45.4424V53.6226H72.4021V45.7872C72.4021 45.3972 72.3638 45.1221 72.2873 44.9619C72.2177 44.8016 72.0716 44.7216 71.8489 44.7216C71.6751 44.7216 71.4941 44.7738 71.3062 44.8783C71.1254 44.9758 70.9236 45.1639 70.701 45.4424V53.6226H67.8311V42.5277H70.2522L70.4714 43.6037C70.8193 43.1301 71.1707 42.7714 71.5254 42.5277C71.8803 42.2839 72.3012 42.162 72.7882 42.162C73.2056 42.162 73.5604 42.2699 73.8527 42.4859C74.1519 42.6948 74.3641 43.0256 74.4893 43.4783C74.8233 43.0883 75.192 42.7714 75.5955 42.5277C75.9991 42.2839 76.4443 42.162 76.9314 42.162Z" fill="#42446E"/>
        <path d="M91.1004 40.7517L91.8728 43.1754C91.4832 43.3287 91.0274 43.4401 90.5057 43.5097C89.9838 43.5794 89.3751 43.6142 88.6794 43.6142C89.3751 43.9137 89.9038 44.2863 90.2656 44.7321C90.6344 45.1708 90.8187 45.7489 90.8187 46.4664C90.8187 47.1837 90.6274 47.8245 90.2448 48.3886C89.862 48.9458 89.3195 49.3846 88.6168 49.705C87.9141 50.0254 87.0826 50.1856 86.1225 50.1856C85.6633 50.1856 85.2354 50.1438 84.8389 50.0602C84.7205 50.1229 84.6302 50.2133 84.5676 50.3318C84.5049 50.4502 84.4736 50.5721 84.4736 50.6975C84.4736 50.8716 84.5431 51.0283 84.6824 51.1675C84.8285 51.3069 85.1659 51.3765 85.6946 51.3765H87.5105C88.3732 51.3765 89.1176 51.5158 89.7438 51.7944C90.3769 52.0729 90.8674 52.4526 91.2153 52.9331C91.5631 53.4137 91.7371 53.964 91.7371 54.5839C91.7371 55.7191 91.2397 56.6141 90.2448 57.2688C89.2498 57.9234 87.7714 58.2509 85.8094 58.2509C84.3901 58.2509 83.2908 58.1046 82.5117 57.812C81.7393 57.5265 81.2002 57.1156 80.8941 56.5792C80.5949 56.0499 80.4453 55.4196 80.4453 54.6882H83.3673C83.3673 55.0087 83.43 55.2699 83.5552 55.4718C83.6874 55.6808 83.9344 55.8341 84.2962 55.9315C84.6649 56.029 85.1972 56.0778 85.8929 56.0778C86.5956 56.0778 87.1313 56.022 87.5 55.9107C87.8688 55.7992 88.1192 55.646 88.2515 55.4509C88.3906 55.2629 88.4602 55.0505 88.4602 54.8136C88.4602 54.4863 88.3314 54.2217 88.0741 54.0197C87.8166 53.8177 87.4097 53.7167 86.853 53.7167H85.0893C83.8926 53.7167 83.0229 53.4973 82.4803 53.0585C81.9376 52.6128 81.6663 52.0938 81.6663 51.5019C81.6663 51.091 81.7741 50.701 81.9898 50.3318C82.2124 49.9627 82.5221 49.6527 82.9187 49.402C82.209 49.0258 81.701 48.5836 81.3949 48.0752C81.0888 47.5598 80.9358 46.9434 80.9358 46.226C80.9358 45.3902 81.148 44.6729 81.5724 44.0739C81.9968 43.4679 82.5811 43.0013 83.3256 42.674C84.077 42.3467 84.9329 42.1829 85.8929 42.1829C86.7208 42.1968 87.441 42.1412 88.0532 42.0158C88.6654 41.8834 89.2151 41.7059 89.7021 41.4829C90.189 41.2531 90.6552 41.0093 91.1004 40.7517ZM85.9764 44.3246C85.4546 44.3246 85.0406 44.4918 84.7345 44.8262C84.4283 45.1535 84.2753 45.6062 84.2753 46.1843C84.2753 46.7971 84.4319 47.2673 84.745 47.5946C85.058 47.9219 85.4686 48.0857 85.9764 48.0857C87.1034 48.0857 87.667 47.4379 87.667 46.1425C87.667 44.9306 87.1034 44.3246 85.9764 44.3246Z" fill="#42446E"/>
        </g>
        <defs>
        <clipPath id="clip0_2_5809">
        <rect width="97" height="59" fill="white"/>
        </clipPath>
        </defs>
    </g>

    <g id="abstract">
        <g opacity="0.25">
            <rect x="585.236" y="470.58" width="443" height="443" transform="rotate(165 585.236 470.58)" stroke="url(#paint0_linear_19_1817)" stroke-opacity="0.5"/>
            <rect x="616.53" y="395.03" width="443" height="443" transform="rotate(150 616.53 395.03)" stroke="url(#paint1_linear_19_1817)" stroke-opacity="0.5"/>
            <rect x="627.204" y="313.956" width="443" height="443" transform="rotate(135 627.204 313.956)" stroke="url(#paint2_linear_19_1817)" stroke-opacity="0.5"/>
            <rect x="616.53" y="232.881" width="443" height="443" transform="rotate(120 616.53 232.881)" stroke="url(#paint3_linear_19_1817)" stroke-opacity="0.5"/>
            <rect x="585.237" y="157.331" width="443" height="443" transform="rotate(105 585.237 157.331)" stroke="url(#paint4_linear_19_1817)" stroke-opacity="0.5"/>
        </g>
        <defs>
        <linearGradient id="paint0_linear_19_1817" x1="807.849" y1="470.933" x2="807.849" y2="905.433" gradientUnits="userSpaceOnUse">
        <stop stop-color="black"/>
        <stop offset="1" stop-color="white" stop-opacity="0"/>
        </linearGradient>
        <linearGradient id="paint1_linear_19_1817" x1="839.213" y1="395.213" x2="839.213" y2="829.713" gradientUnits="userSpaceOnUse">
        <stop stop-color="black"/>
        <stop offset="1" stop-color="white" stop-opacity="0"/>
        </linearGradient>
        <linearGradient id="paint2_linear_19_1817" x1="849.911" y1="313.956" x2="849.911" y2="748.456" gradientUnits="userSpaceOnUse">
        <stop stop-color="black"/>
        <stop offset="1" stop-color="white" stop-opacity="0"/>
        </linearGradient>
        <linearGradient id="paint3_linear_19_1817" x1="839.213" y1="232.698" x2="839.213" y2="667.198" gradientUnits="userSpaceOnUse">
        <stop stop-color="black"/>
        <stop offset="1" stop-color="black" stop-opacity="0"/>
        </linearGradient>
        <linearGradient id="paint4_linear_19_1817" x1="807.849" y1="156.978" x2="807.849" y2="591.478" gradientUnits="userSpaceOnUse">
        <stop stop-color="black"/>
        <stop offset="1" stop-color="black" stop-opacity="0"/>
        </linearGradient>
        </defs>
    </g>
    <!-- social -->
    <g id="githubSvg">
        <path fill-rule="evenodd" clip-rule="evenodd"
            d="M15 0C6.7125 0 0 6.7125 0 15C0 21.6375 4.29375 27.2437 10.2563 29.2313C11.0063 29.3625 11.2875 28.9125 11.2875 28.5188C11.2875 28.1625 11.2688 26.9813 11.2688 25.725C7.5 26.4188 6.525 24.8062 6.225 23.9625C6.05625 23.5312 5.325 22.2 4.6875 21.8438C4.1625 21.5625 3.4125 20.8687 4.66875 20.85C5.85 20.8313 6.69375 21.9375 6.975 22.3875C8.325 24.6562 10.4812 24.0187 11.3438 23.625C11.475 22.65 11.8688 21.9937 12.3 21.6187C8.9625 21.2437 5.475 19.95 5.475 14.2125C5.475 12.5813 6.05625 11.2313 7.0125 10.1813C6.8625 9.80625 6.3375 8.26875 7.1625 6.20625C7.1625 6.20625 8.41875 5.8125 11.2875 7.74375C12.4875 7.40625 13.7625 7.2375 15.0375 7.2375C16.3125 7.2375 17.5875 7.40625 18.7875 7.74375C21.6562 5.79375 22.9125 6.20625 22.9125 6.20625C23.7375 8.26875 23.2125 9.80625 23.0625 10.1813C24.0188 11.2313 24.6 12.5625 24.6 14.2125C24.6 19.9688 21.0938 21.2437 17.7563 21.6187C18.3 22.0875 18.7688 22.9875 18.7688 24.3937C18.7688 26.4 18.75 28.0125 18.75 28.5188C18.75 28.9125 19.0312 29.3813 19.7812 29.2313C22.759 28.2259 25.3465 26.3121 27.1796 23.7592C29.0127 21.2063 29.9991 18.1429 30 15C30 6.7125 23.2875 0 15 0Z"
            fill="currentColor" />
    </g>
    <g id="twitterSvg">
        <path
            d="M15 0C6.71652 0 0 6.71652 0 15C0 23.2835 6.71652 30 15 30C23.2835 30 30 23.2835 30 15C30 6.71652 23.2835 0 15 0ZM22.2087 11.3069C22.2187 11.4643 22.2187 11.6283 22.2187 11.7891C22.2187 16.7042 18.4754 22.3661 11.635 22.3661C9.52567 22.3661 7.57031 21.7533 5.92299 20.6987C6.22433 20.7321 6.51228 20.7455 6.82031 20.7455C8.56138 20.7455 10.1618 20.1562 11.4375 19.1585C9.80357 19.125 8.4308 18.0536 7.96205 16.5804C8.5346 16.6641 9.05022 16.6641 9.63951 16.5134C8.79819 16.3425 8.04199 15.8855 7.49938 15.2203C6.95678 14.555 6.66123 13.7223 6.66295 12.8638V12.817C7.15513 13.0949 7.73438 13.2656 8.3404 13.2891C7.83095 12.9495 7.41314 12.4895 7.12403 11.9499C6.83493 11.4102 6.68345 10.8075 6.68304 10.1953C6.68304 9.50223 6.86384 8.86942 7.18862 8.32031C8.12244 9.46988 9.28771 10.4101 10.6087 11.0798C11.9297 11.7495 13.3768 12.1338 14.856 12.2076C14.3304 9.67969 16.2188 7.63393 18.4888 7.63393C19.5603 7.63393 20.5246 8.08259 21.2042 8.8058C22.0446 8.64844 22.8482 8.3337 23.5647 7.91183C23.2868 8.77232 22.7042 9.49888 21.9308 9.95759C22.6808 9.87723 23.404 9.66964 24.0737 9.37835C23.5681 10.1217 22.9353 10.7812 22.2087 11.3069Z"
            fill="currentColor" />
    </g>
    <g id="inSvg">
        <path
            d="M14.4 0C6.447 0 0 6.447 0 14.4C0 22.353 6.447 28.8 14.4 28.8C22.353 28.8 28.8 22.353 28.8 14.4C28.8 6.447 22.353 0 14.4 0ZM10.875 20.3685H7.959V10.9845H10.875V20.3685ZM9.399 9.8325C8.478 9.8325 7.8825 9.18 7.8825 8.373C7.8825 7.5495 8.496 6.9165 9.4365 6.9165C10.377 6.9165 10.953 7.5495 10.971 8.373C10.971 9.18 10.377 9.8325 9.399 9.8325ZM21.525 20.3685H18.609V15.168C18.609 13.9575 18.186 13.1355 17.1315 13.1355C16.326 13.1355 15.8475 13.692 15.636 14.2275C15.558 14.418 15.5385 14.688 15.5385 14.9565V20.367H12.621V13.977C12.621 12.8055 12.5835 11.826 12.5445 10.983H15.078L15.2115 12.2865H15.27C15.654 11.6745 16.5945 10.7715 18.168 10.7715C20.0865 10.7715 21.525 12.057 21.525 14.82V20.3685Z"
            fill="currentColor" />
    </g>
    <!-- little icons -->
    <g id="location">
        <path
            d="M4.125 6C3.75416 6 3.39165 5.89003 3.08331 5.68401C2.77496 5.47798 2.53464 5.18514 2.39273 4.84253C2.25081 4.49992 2.21368 4.12292 2.28603 3.75921C2.35838 3.39549 2.53695 3.0614 2.79918 2.79918C3.0614 2.53695 3.39549 2.35838 3.75921 2.28603C4.12292 2.21368 4.49992 2.25081 4.84253 2.39273C5.18514 2.53464 5.47798 2.77496 5.68401 3.08331C5.89003 3.39165 6 3.75416 6 4.125C5.99941 4.6221 5.80167 5.09867 5.45017 5.45017C5.09867 5.80167 4.6221 5.99941 4.125 6ZM4.125 3C3.9025 3 3.68499 3.06598 3.49998 3.1896C3.31498 3.31321 3.17079 3.48892 3.08564 3.69448C3.00049 3.90005 2.97821 4.12625 3.02162 4.34448C3.06503 4.56271 3.17217 4.76316 3.32951 4.9205C3.48684 5.07783 3.6873 5.18498 3.90552 5.22838C4.12375 5.27179 4.34995 5.24951 4.55552 5.16437C4.76109 5.07922 4.93679 4.93502 5.0604 4.75002C5.18402 4.56501 5.25 4.34751 5.25 4.125C5.2497 3.82672 5.13108 3.54075 4.92017 3.32983C4.70925 3.11892 4.42328 3.0003 4.125 3Z"
            fill="#A7A7A7" />
        <path
            d="M4.125 10.5L0.961504 6.76912C0.917547 6.7131 0.874046 6.65673 0.831004 6.6C0.290622 5.88817 -0.00130545 5.01871 4.38858e-06 4.125C4.38858e-06 3.03098 0.434601 1.98177 1.20819 1.20818C1.98178 0.434597 3.03099 0 4.125 0C5.21902 0 6.26823 0.434597 7.04182 1.20818C7.81541 1.98177 8.25 3.03098 8.25 4.125C8.25131 5.0183 7.95952 5.88737 7.41938 6.59888L7.419 6.6C7.419 6.6 7.3065 6.74775 7.28963 6.76763L4.125 10.5ZM1.4295 6.14813C1.43025 6.14813 1.51725 6.26362 1.53713 6.28837L4.125 9.3405L6.71625 6.28425C6.73275 6.26362 6.8205 6.14738 6.82088 6.147C7.26231 5.56542 7.50087 4.85514 7.5 4.125C7.5 3.22989 7.14442 2.37145 6.51149 1.73851C5.87855 1.10558 5.02011 0.75 4.125 0.75C3.2299 0.75 2.37145 1.10558 1.73852 1.73851C1.10558 2.37145 0.750004 3.22989 0.750004 4.125C0.749218 4.85559 0.988046 5.56628 1.42988 6.14813H1.4295Z"
            fill="#A7A7A7" />
    </g>
    <g id="linkSvg">
        <path d="M9.62017 7.04692C8.93758 6.36461 8.01196 5.98132 7.04683 5.98132C6.08171 5.98132 5.15609 6.36461 4.4735 7.04692L1.89933 9.62025C1.21673 10.3029 0.833252 11.2287 0.833252 12.194C0.833252 13.1593 1.21673 14.0852 1.89933 14.7678C2.58193 15.4504 3.50774 15.8338 4.47308 15.8338C5.43843 15.8338 6.36423 15.4504 7.04683 14.7678L8.3335 13.4811" stroke="black" stroke-width="1.66667" stroke-linecap="round" stroke-linejoin="round"/>
        <path d="M7.04688 9.62026C7.72946 10.3026 8.65508 10.6859 9.62021 10.6859C10.5853 10.6859 11.511 10.3026 12.1935 9.62026L14.7677 7.04693C15.4503 6.36432 15.8338 5.43852 15.8338 4.47318C15.8338 3.50783 15.4503 2.58203 14.7677 1.89943C14.0851 1.21682 13.1593 0.833344 12.194 0.833344C11.2286 0.833344 10.3028 1.21682 9.62021 1.89943L8.33354 3.18609" stroke="black" stroke-width="1.66667" stroke-linecap="round" stroke-linejoin="round"/>
    </g>
    <!-- stack -->
    <g id="st1Svg">
        <path d="M8.42625 94.5038L0 0H92.5875L84.15 94.4888L46.2375 105L8.42625 94.5038Z" fill="#E44F26" />
        <path d="M46.2939 96.9675L76.9314 88.4738L84.1389 7.72876H46.2939V96.9675Z" fill="#F1662A" />
        <path
            d="M46.2939 42.7762H30.9564L29.8989 30.9075H46.2939V19.3162H17.2314L17.5089 22.4287L20.3552 54.3675H46.2939V42.7762ZM46.2939 72.8775L46.2414 72.8925L33.3339 69.4087L32.5089 60.165H20.8727L22.4964 78.36L46.2414 84.9525L46.2939 84.9375V72.8775Z"
            fill="#EBEBEB" />
        <path
            d="M46.2529 42.7762V54.3675H60.5254L59.1829 69.4012L46.2529 72.8887V84.9487L70.0167 78.36L70.1892 76.4025L72.9117 45.8887L73.1967 42.7762H46.2529ZM46.2529 19.3162V30.9075H74.2504L74.4829 28.305L75.0117 22.4287L75.2892 19.3162H46.2529Z"
            fill="white" />

    </g>
    <g id="st2Svg">
        <path d="M8.4225 93.7162L0 0H92.58L84.1462 93.7013L46.2337 104.125L8.4225 93.7162Z" fill="#1572B6" />
        <path d="M46.29 96.1595L76.9275 87.7365L84.135 7.66437H46.29V96.1595Z" fill="#33A9DC" />
        <path
            d="M46.29 41.6165H61.6275L62.685 29.8467H46.29V18.3521H75.3525L75.075 21.4349L72.2288 53.1112H46.29V41.6165Z"
            fill="white" />
        <path
            d="M46.3612 71.467L46.3087 71.4818L33.4012 68.0234L32.5762 58.8567H20.9399L22.5637 76.9038L46.3049 83.4413L46.3612 83.4265V71.467Z"
            fill="#EBEBEB" />
        <path
            d="M60.6413 52.624L59.2463 68.0159L46.3201 71.4744V83.4339L70.0801 76.9037L70.2563 74.9626L72.2701 52.624H60.6413Z"
            fill="white" />
        <path
            d="M46.3312 18.3521V29.8467H18.3337L18.1012 27.2622L17.5724 21.4349L17.2949 18.3521H46.3312ZM46.2899 41.6165V53.1112H33.5437L33.3112 50.5267L32.7862 44.6994L32.5087 41.6165H46.2899Z"
            fill="#EBEBEB" />

    </g>
    <g id="st3Svg">
        <path d="M0 0H105V105H0V0Z" fill="#F5DE19" />
        <path
            d="M70.5338 82.0312C71.4284 83.8485 72.8183 85.3759 74.5434 86.4375C76.2684 87.4991 78.2584 88.0515 80.2838 88.0313C84.3713 88.0313 86.985 85.9875 86.985 83.1562C86.985 79.7812 84.3 78.5738 79.8 76.605L77.3325 75.5475C70.2075 72.5138 65.4825 68.715 65.4825 60.6825C65.4825 53.2838 71.1075 47.6475 79.9313 47.6475C82.7877 47.4412 85.6416 48.0805 88.137 49.4856C90.6324 50.8907 92.659 52.9994 93.9638 55.5488L86.25 60.48C85.7476 59.216 84.8728 58.1345 83.7416 57.379C82.6105 56.6236 81.2764 56.2298 79.9163 56.25C79.3229 56.1906 78.7236 56.2555 78.1567 56.4404C77.5897 56.6254 77.0675 56.9265 76.6234 57.3244C76.1792 57.7224 75.8228 58.2085 75.5769 58.7518C75.331 59.2951 75.2009 59.8837 75.195 60.48C75.195 63.4388 77.0288 64.6388 81.2625 66.48L83.73 67.5375C92.115 71.1338 96.855 74.7975 96.855 83.0363C96.855 91.92 89.8763 96.7875 80.505 96.7875C76.8537 97.0201 73.213 96.1912 70.0223 94.4005C66.8317 92.6099 64.2274 89.9342 62.5238 86.6963L70.5338 82.0312ZM35.6775 82.8863C37.2263 85.635 38.6363 87.96 42.0263 87.96C45.2663 87.96 47.3138 86.6925 47.3138 81.7612V48.21H57.18V81.8925C57.18 92.1075 51.18 96.7575 42.4463 96.7575C39.3591 96.9263 36.2931 96.1569 33.6513 94.5506C31.0096 92.9442 28.9157 90.5761 27.645 87.7575L35.6775 82.8863Z"
            fill="black" />


    </g>
    <g id="st4Svg">
        <path
            d="M92.9008 32.7027C91.6983 32.2886 90.4857 31.905 89.2639 31.5522C89.4692 30.7106 89.6581 29.8791 89.8258 29.0622C92.5791 15.6483 90.7792 4.84172 84.6313 1.28369C78.7368 -2.12728 69.0969 1.42943 59.3611 9.93336C58.4016 10.773 57.4634 11.6368 56.5474 12.5239C55.9342 11.934 55.3101 11.3555 54.6756 10.7888C44.472 1.6961 34.2445 -2.13614 28.1033 1.43209C22.2141 4.85368 20.4703 15.0126 22.949 27.7253C23.1956 28.9844 23.4741 30.2369 23.7841 31.4818C22.3364 31.8947 20.9395 32.3341 19.6026 32.8019C7.63967 36.9881 0 43.5482 0 50.3528C0 57.3808 8.20153 64.4299 20.6614 68.7043C21.6715 69.0494 22.6901 69.3692 23.7161 69.6633C23.3829 71.0041 23.0871 72.354 22.829 73.7113C20.4659 86.2034 22.3112 96.1222 28.1845 99.5221C34.2507 103.033 44.4322 99.4247 54.3458 90.7267C55.1497 90.0196 55.9359 89.2924 56.7036 88.5459C57.6956 89.5065 58.7141 90.4392 59.7579 91.3429C69.3612 99.6364 78.8454 102.985 84.713 99.5762C90.7734 96.0549 92.7432 85.3994 90.186 72.4355C89.9845 71.4199 89.7586 70.4093 89.5084 69.4046C90.2235 69.192 90.9252 68.9732 91.6094 68.7455C104.563 64.4384 112.991 57.4747 112.991 50.3528C112.991 43.5234 105.104 36.919 92.9008 32.7027ZM90.0915 64.1473C89.4736 64.3524 88.8398 64.5504 88.1936 64.7431C86.7636 60.1995 84.8339 55.3683 82.4721 50.3763C84.7258 45.5035 86.5813 40.7339 87.9712 36.2199C89.1271 36.5557 90.2486 36.9097 91.33 37.2831C101.786 40.8961 108.164 46.2371 108.164 50.3528C108.164 54.7366 101.276 60.4276 90.0915 64.1473ZM85.4509 73.3764C86.5817 79.1086 86.7428 84.2915 85.9938 88.3435C85.3212 91.9843 83.9679 94.4114 82.2943 95.3838C78.7337 97.4525 71.1188 94.7636 62.9062 87.6706C61.9354 86.8304 60.988 85.9633 60.0651 85.0703C63.2492 81.5756 66.431 77.513 69.5365 73.0008C74.9989 72.5144 80.1594 71.7188 84.8392 70.633C85.0646 71.5425 85.2686 72.4572 85.4509 73.3764ZM38.521 95.0263C35.0421 96.2591 32.2712 96.2946 30.5962 95.3253C27.0321 93.2623 25.5504 85.298 27.5715 74.615C27.8117 73.3526 28.0868 72.0972 28.3964 70.8501C33.0246 71.8778 38.1476 72.6167 43.6228 73.0623C46.7494 77.4776 50.0231 81.5357 53.3223 85.0893C52.6212 85.7702 51.9034 86.4337 51.1698 87.0792C46.7856 90.9252 42.3927 93.6539 38.521 95.0263ZM22.223 64.1203C16.7133 62.2301 12.1633 59.7738 9.04455 57.0933C6.24185 54.6848 4.82726 52.2931 4.82726 50.3528C4.82726 46.2234 10.961 40.9563 21.1915 37.3766C22.4331 36.9424 23.7324 36.5327 25.0808 36.1482C26.495 40.764 28.3496 45.5903 30.5878 50.4707C28.3205 55.4232 26.4394 60.3266 25.0115 64.997C24.075 64.7277 23.1452 64.4354 22.223 64.1203ZM27.6862 26.7946C25.5628 15.903 26.973 7.687 30.522 5.62491C34.3019 3.42861 42.6606 6.56005 51.4708 14.4115C52.0453 14.9246 52.6105 15.4482 53.1661 15.9818C49.8832 19.5199 46.6395 23.548 43.5407 27.9371C38.2266 28.4314 33.1398 29.2252 28.463 30.2888C28.1749 29.131 27.9159 27.966 27.6862 26.795V26.7946ZM76.4254 38.8738C75.3207 36.9588 74.1751 35.0679 72.9893 33.2023C76.5944 33.6599 80.0486 34.2673 83.2922 35.0097C82.3185 38.1425 81.1048 41.4175 79.6761 44.7753C78.6317 42.7866 77.548 40.8191 76.4254 38.8738ZM56.5496 19.4442C58.7759 21.8651 61.0057 24.5677 63.1988 27.5003C58.7498 27.2894 54.2934 27.2885 49.8443 27.4976C52.0397 24.5921 54.2885 21.893 56.5496 19.4442ZM36.5463 38.9071C35.4377 40.8366 34.3742 42.7919 33.3565 44.7713C31.9512 41.4254 30.7485 38.1354 29.7664 34.9583C32.9902 34.2345 36.428 33.6427 40.0102 33.1935C38.8111 35.0704 37.6562 36.9753 36.5463 38.9066V38.9071ZM40.113 67.8569C36.4121 67.4422 32.9226 66.881 29.6998 66.1766C30.6973 62.9429 31.9265 59.5828 33.3623 56.1652C34.3839 58.1461 35.4519 60.1025 36.5653 62.033C37.7102 64.0175 38.8957 65.9613 40.113 67.8569ZM56.6829 81.6026C54.3948 79.1255 52.113 76.3847 49.8845 73.4371C52.0481 73.5222 54.2536 73.5656 56.4953 73.5656C58.7984 73.5656 61.075 73.5137 63.3158 73.4136C61.1156 76.4144 58.8942 79.1591 56.6829 81.6026ZM79.7215 55.9907C81.2319 59.4459 82.5048 62.7883 83.5155 65.9667C80.2397 66.7171 76.7026 67.3213 72.9756 67.77C74.1699 65.8699 75.3263 63.9461 76.4443 61.9998C77.581 60.0214 78.6737 58.0179 79.7215 55.9907ZM72.2633 59.5793C70.5517 62.5634 68.7439 65.4908 66.8428 68.357C63.399 68.6018 59.9477 68.7234 56.4953 68.7216C52.9789 68.7216 49.5588 68.6117 46.2653 68.3973C44.3145 65.5378 42.4722 62.6052 40.7424 59.6059H40.7428C39.0211 56.6224 37.413 53.5744 35.9218 50.4685C37.4092 47.3618 39.0125 44.3124 40.7283 41.3266L40.7278 41.3271C42.443 38.3406 44.2705 35.4206 46.2066 32.5733C49.5667 32.3181 53.0125 32.1853 56.4949 32.1853H56.4953C59.9936 32.1853 63.4438 32.3195 66.8031 32.5764C68.7195 35.4194 70.5354 38.3294 72.2474 41.3009C73.9689 44.2801 75.5934 47.3146 77.1183 50.3998C75.6091 53.5165 73.9897 56.5783 72.2633 59.5793ZM82.2206 5.4805C86.004 7.67061 87.4755 16.5023 85.0983 28.0841C84.9464 28.823 84.7761 29.5756 84.5907 30.3389C79.9025 29.2527 74.8122 28.4452 69.4826 27.9433C66.378 23.5059 63.1609 19.4717 59.9314 15.9792C60.7778 15.1603 61.6443 14.3627 62.5302 13.5871C70.8721 6.30135 78.6684 3.42462 82.2206 5.4805ZM56.4953 40.2263C62.0676 40.2263 66.585 44.7602 66.585 50.3528C66.585 55.9455 62.0676 60.4794 56.4953 60.4794C50.923 60.4794 46.4056 55.9455 46.4056 50.3528C46.4056 44.7602 50.923 40.2263 56.4953 40.2263Z"
            fill="#00D8FF" />

    </g>
    <g id="st5Svg">
        <path
            d="M72.6971 69.5627C76.5688 69.1619 79.5061 65.8242 79.3725 61.8184C79.2393 57.8131 75.9012 54.6086 71.8959 54.6086H71.6291C67.4897 54.7422 64.2856 58.2135 64.4193 62.3525C64.5529 64.3553 65.3537 66.091 66.5553 67.2926C62.016 76.2385 55.0734 82.7807 44.6594 88.2549C37.5832 91.9934 30.2402 93.3287 22.8971 92.3943C16.8889 91.593 12.216 88.923 9.27827 84.5164C5.00614 77.9742 4.60573 70.8975 8.21065 63.8213C10.7475 58.7475 14.7525 55.009 17.2893 53.1398C16.7553 51.4041 15.9541 48.4668 15.5537 46.3307C-3.80574 60.35 -1.80287 79.3094 4.07172 88.2549C8.47745 94.9311 17.4229 99.0701 27.3029 99.0701C29.9729 99.0701 32.643 98.8029 35.3135 98.1357C52.4033 94.7975 65.3541 84.65 72.6971 69.5627ZM96.1955 53.0066C86.0483 41.1234 71.0951 34.5811 54.0053 34.5811H51.8693C50.6676 32.1779 48.1307 30.5754 45.327 30.5754H45.0598C40.9213 30.709 37.7172 34.1803 37.8504 38.3197C37.984 42.325 41.3217 45.5295 45.327 45.5295H45.5938C48.5311 45.3959 51.068 43.5266 52.1361 40.9898H54.5393C64.6865 40.9898 74.2992 43.927 82.9779 49.6684C89.6533 54.0746 94.4598 59.816 97.1299 66.7586C99.3996 72.3664 99.266 77.8406 96.8627 82.5139C93.1246 89.5902 86.8496 93.4623 78.5717 93.4623C73.2311 93.4623 68.1578 91.8598 65.4873 90.6582C64.0188 91.9934 61.3484 94.1295 59.4791 95.4652C65.2205 98.1352 71.0951 99.6041 76.7025 99.6041C89.5197 99.6041 98.9992 92.5275 102.604 85.4512C106.476 77.707 106.209 64.3553 96.1955 53.0066ZM28.3709 71.832C28.5045 75.8377 31.8422 79.0418 35.8475 79.0418H36.1147C40.2537 78.9086 43.4578 75.4369 43.3242 71.2979C43.191 67.2922 39.8529 64.0881 35.8475 64.0881H35.5807C35.3135 64.0881 34.9127 64.0881 34.6463 64.2213C29.1721 55.1422 26.9025 45.2623 27.7037 34.5807C28.2373 26.5697 30.9078 19.6266 35.5807 13.8852C39.4525 8.94508 46.9291 6.5418 52.0029 6.40861C66.1549 6.14139 72.1627 23.7656 72.5635 30.8422C74.2992 31.2426 77.2365 32.1775 79.2393 32.8451C77.6369 11.2156 64.2856 0 51.4688 0C39.4524 0 28.3709 8.67869 23.9647 21.4963C17.8234 38.5865 21.8287 55.009 29.3053 67.9602C28.6381 68.8947 28.2373 70.3635 28.3709 71.8324V71.832Z"
            fill="#764ABC" />

    </g>
    <g id="st6Svg">
        <path
            d="M0 75.7821C0 81.9781 5.08028 87 11.3468 87H76.6528C82.9204 87 88 81.9774 88 75.7821V11.2182C88 5.02187 82.9197 0 76.6532 0H11.3472C5.07959 0 0 5.02255 0 11.2179V75.7818V75.7821Z"
            fill="#563D7C" />
        <path
            d="M36.4919 38.4832V26.1629H47.4613C48.5063 26.1629 49.5135 26.2489 50.4836 26.4212C51.4536 26.5931 52.312 26.9003 53.0583 27.3431C53.8042 27.786 54.4013 28.4007 54.8492 29.1875C55.2968 29.9746 55.5209 30.9829 55.5209 32.2121C55.5209 34.4255 54.8492 36.0241 53.5058 37.0076C52.1628 37.9915 50.4464 38.4832 48.3568 38.4832H36.4919ZM24.7759 17.1621V69.8379H50.5956C52.9837 69.8379 55.3095 69.5429 57.5731 68.9526C59.8367 68.3623 61.8514 67.4525 63.6176 66.223C65.3834 64.9934 66.789 63.407 67.8337 61.4645C68.8787 59.5216 69.4008 57.2222 69.4008 54.5663C69.4008 51.2709 68.5923 48.4553 66.9757 46.1192C65.3587 43.7828 62.9084 42.1474 59.6249 41.2129C62.0129 40.0819 63.8166 38.6307 65.0355 36.8601C66.2541 35.0895 66.8636 32.8765 66.8636 30.2203C66.8636 27.7612 66.4532 25.6956 65.6323 24.0232C64.8114 22.3512 63.6547 21.0108 62.1621 20.0025C60.6699 18.9942 58.879 18.2686 56.7893 17.8262C54.7 17.3833 52.3866 17.1621 49.8493 17.1621H24.7759ZM36.4919 60.8371V46.3771H49.2523C51.7895 46.3771 53.8293 46.9548 55.3717 48.111C56.9138 49.2668 57.6851 51.1971 57.6851 53.9023C57.6851 55.2797 57.4486 56.4107 56.976 57.296C56.5033 58.1813 55.8691 58.8823 55.073 59.3986C54.2772 59.9151 53.3566 60.2839 52.312 60.5054C51.267 60.7263 50.1728 60.8371 49.0285 60.8371H36.4919Z"
            fill="white" />

    </g>
    <g id="st7Svg">
        <path
            d="M28.6562 22.925C32.4771 7.64166 42.0292 0 57.3125 0C80.2375 0 83.1031 17.1937 94.5656 20.0594C102.207 21.9698 108.894 19.1042 114.625 11.4625C110.804 26.7458 101.252 34.3875 85.9688 34.3875C63.0438 34.3875 60.1781 17.1938 48.7156 14.3281C41.074 12.4177 34.3875 15.2833 28.6562 22.925ZM0 57.3125C3.82083 42.0292 13.3729 34.3875 28.6562 34.3875C51.5812 34.3875 54.4469 51.5812 65.9094 54.4469C73.551 56.3573 80.2375 53.4917 85.9688 45.85C82.1479 61.1333 72.5958 68.775 57.3125 68.775C34.3875 68.775 31.5219 51.5812 20.0594 48.7156C12.4177 46.8052 5.73125 49.6708 0 57.3125Z"
            fill="#44A8B3" />
    </g>
    <g id="st8Svg">
        <path
            d="M100.463 49.8709C96.3928 49.8917 92.8551 50.8637 89.8932 52.3005C88.806 50.1663 87.7193 48.265 87.5278 46.8703C87.3144 45.2436 87.0589 44.2503 87.3143 42.3064C87.5703 40.3625 88.721 37.5944 88.6995 37.3832C88.6785 37.1721 88.4436 36.1788 86.0996 36.158C83.7556 36.1367 81.7311 36.6016 81.4966 37.2142C81.2622 37.8268 80.8148 39.2215 80.5163 40.658C80.1114 42.7713 75.8284 50.314 73.3779 54.2653C72.5891 52.7233 71.9072 51.3707 71.7578 50.2932C71.5448 48.6665 71.2889 47.6732 71.5448 45.7293C71.8007 43.7854 72.9515 41.0177 72.93 40.8061C72.9085 40.595 72.6741 39.6017 70.3301 39.5809C67.9856 39.5596 65.9611 40.0245 65.7271 40.6371C65.4927 41.2502 65.2367 42.6866 64.7468 44.0813C64.2565 45.476 58.5667 58.0693 57.075 61.3227C56.4722 62.6396 55.8399 63.9429 55.1784 65.2318C55.1784 65.2318 55.157 65.2953 55.093 65.4008C54.8852 65.805 54.6722 66.2065 54.4541 66.6052V66.6261C54.1342 67.197 53.7932 67.7249 53.6228 67.7249C53.4948 67.7249 53.2604 66.2038 53.6653 64.133C54.5176 59.7594 56.5421 52.9558 56.5211 52.7233C56.5211 52.5964 56.9046 51.4133 55.1999 50.8003C53.5373 50.1876 52.9409 51.2017 52.7915 51.2017C52.6425 51.2017 52.5356 51.5611 52.5356 51.5611C52.5356 51.5611 54.3901 43.9123 48.9983 43.9123C45.6315 43.9123 40.9856 47.5677 38.6841 50.8637C36.0678 52.2754 33.4537 53.6911 30.8418 55.1108C29.5851 55.8082 28.2849 56.5055 27.0701 57.1603C26.9847 57.076 26.8997 56.97 26.8142 56.8857C20.2932 49.9765 8.2318 45.0954 8.74319 35.8199C8.93513 32.4392 10.1069 23.5647 31.9076 12.789C49.8506 4.02008 64.129 6.44974 66.6009 11.8378C70.1382 19.5292 58.9506 33.8126 40.4102 35.8829C33.3353 36.665 29.6271 33.9603 28.6898 32.9462C27.7095 31.8895 27.5601 31.8261 27.1976 32.0377C26.6012 32.3549 26.9847 33.3055 27.1976 33.8547C27.752 35.2911 30.032 37.8268 33.8892 39.0738C37.2989 40.1722 45.5886 40.7853 55.6258 36.9396C66.8564 32.629 75.6364 20.6489 73.058 10.6126C70.4791 0.428159 53.4308 -2.93131 37.2989 2.75224C27.7095 6.13346 17.3098 11.4577 9.82995 18.3882C0.943427 26.6283 -0.463244 33.7913 0.112129 36.7919C2.17964 47.4408 16.9904 54.3713 22.9146 59.5057C22.6161 59.6747 22.3387 59.8229 22.1047 59.9497C19.1424 61.4075 7.84791 67.26 5.03502 73.4511C1.83871 80.4659 5.54687 85.4951 7.99735 86.1707C15.6052 88.2628 23.426 84.5019 27.624 78.2895C31.8221 72.0776 31.3107 64.0061 29.3716 60.3086C29.3502 60.2665 29.3291 60.2239 29.2862 60.1817C30.0535 59.7381 30.8418 59.2732 31.6091 58.8296C33.0194 58.003 34.4476 57.2068 35.8927 56.4417C35.1679 58.4069 34.635 60.7522 34.3795 64.133C34.0596 68.1055 35.7003 73.2607 37.8528 75.2889C38.8121 76.1771 39.9413 76.1979 40.6661 76.1979C43.1806 76.1979 44.3103 74.1271 45.5676 71.6762C47.1017 68.676 48.4869 65.1897 48.4869 65.1897C48.4869 65.1897 46.7608 74.6133 51.4492 74.6133C53.1539 74.6133 54.88 72.4157 55.6473 71.296V71.3168C55.6473 71.3168 55.6898 71.2534 55.7753 71.1057C55.9458 70.8311 56.0522 70.6616 56.0522 70.6616V70.6199C56.7341 69.4364 58.2687 66.753 60.5487 62.2947C63.4896 56.5477 66.324 49.3638 66.324 49.3638C66.324 49.3638 66.5799 51.1174 67.4532 54.0333C67.9651 55.7448 69.0299 57.6252 69.8827 59.4422C69.2008 60.3934 68.7744 60.9212 68.7744 60.9212L68.7959 60.9425C68.2416 61.6607 67.6452 62.4424 66.9843 63.2036C64.6614 65.95 61.8914 69.0988 61.5075 70.0069C61.0597 71.0844 61.1666 71.8665 62.0194 72.5004C62.6373 72.9653 63.7451 73.0283 64.8748 72.9653C66.9633 72.8171 68.4335 72.3101 69.1579 71.9934C70.2876 71.5919 71.6088 70.9788 72.8446 70.0703C75.125 68.401 76.5098 66.0135 76.3823 62.8656C76.3183 61.1329 75.7429 59.4001 75.0396 57.7729C75.253 57.4775 75.4445 57.1816 75.6579 56.8857C79.2591 51.6666 82.051 45.9405 82.051 45.9405C82.051 45.9405 82.3069 47.6941 83.1803 50.6104C83.6066 52.0894 84.4804 53.6953 85.2473 55.2585C81.859 57.9845 79.7705 61.1537 79.0247 63.2245C77.6824 67.0702 78.7262 68.8024 80.7083 69.2039C81.6031 69.3942 82.8818 68.9715 83.8196 68.57C85.0129 68.1898 86.4195 67.5351 87.7622 66.5627C90.0427 64.8938 92.2372 62.5693 92.1093 59.4214C92.0453 57.9845 91.6619 56.5685 91.129 55.1951C94.0059 54.0125 97.714 53.3572 102.445 53.9064C112.589 55.0895 114.592 61.3649 114.208 64.0066C113.824 66.6474 111.693 68.0843 110.991 68.5279C110.287 68.9719 110.053 69.1196 110.117 69.4364C110.202 69.9013 110.543 69.8804 111.14 69.7957C111.971 69.648 116.467 67.6615 116.659 62.8017C116.979 56.5898 111.012 49.8075 100.463 49.8709ZM22.2112 76.0289C18.844 79.6629 14.156 81.0364 12.1314 79.8746C9.95792 78.6276 10.8102 73.2607 14.9443 69.4155C17.4588 67.0702 20.6981 64.8933 22.8506 63.5625C23.3405 63.2666 24.0653 62.8443 24.9391 62.316C25.0881 62.2312 25.1736 62.1891 25.1736 62.1891L25.6849 61.8719C27.1976 67.3656 25.7489 72.2045 22.2112 76.0289ZM46.7183 59.5057C45.5461 62.3373 43.0956 69.5845 41.6039 69.1831C40.3252 68.845 39.5364 63.3514 41.348 57.9211C42.2643 55.1951 44.2034 51.9412 45.3331 50.6738C47.1657 48.6452 49.1903 47.9687 49.6802 48.7934C50.2985 49.8709 47.4427 57.7308 46.7183 59.5057ZM66.9418 69.0983C66.4515 69.3521 65.983 69.5211 65.7696 69.3942C65.6206 69.3095 65.983 68.9715 65.983 68.9715C65.983 68.9715 68.519 66.2672 69.5203 65.0415C70.0961 64.3233 70.7775 63.4782 71.5023 62.5271V62.8017C71.5023 66.0348 68.348 68.2111 66.9414 69.0983H66.9418ZM82.5409 65.5699C82.1785 65.3161 82.2425 64.471 83.4572 61.8298C83.9261 60.7944 85.0339 59.0621 86.9309 57.3928C87.1439 58.0688 87.2933 58.724 87.2719 59.3367C87.2504 63.4148 84.31 64.9359 82.5409 65.5699Z"
            fill="#CD6799" />
    </g>
    <g id="st9Svg">
        <path
            d="M103.02 47.8217L57.1758 1.98013C54.5372 -0.660044 50.2552 -0.660044 47.6134 1.98013L38.0937 11.4999L50.1699 23.5761C52.9762 22.6278 56.1943 23.264 58.4313 25.501C60.6789 27.7523 61.3106 30.9979 60.3393 33.8132L71.9775 45.4518C74.7932 44.4818 78.0421 45.1093 80.291 47.3619C83.434 50.5037 83.434 55.5958 80.291 58.7396C77.1471 61.8839 72.055 61.8839 68.9095 58.7396C66.5454 56.373 65.9613 52.901 67.1582 49.9885L56.3046 39.135L56.3034 67.697C57.0902 68.086 57.8088 68.5999 58.4313 69.2187C61.5743 72.3605 61.5743 77.453 58.4313 80.5993C55.2874 83.7419 50.1929 83.7419 47.0535 80.5993C43.9105 77.453 43.9105 72.3609 47.0535 69.2191C47.8067 68.4655 48.7019 67.8687 49.6871 67.4632V38.635C48.7004 38.2322 47.8048 37.635 47.0535 36.8791C44.6722 34.501 44.0996 31.0069 45.3198 28.0829L33.4154 16.1773L1.98105 47.6096C-0.660352 50.2522 -0.660352 54.5347 1.98105 57.1753L47.8259 103.018C50.4652 105.658 54.7464 105.658 57.3891 103.018L103.019 57.3881C105.66 54.7467 105.66 50.4618 103.019 47.8217"
            fill="#DE4C36" />
    </g>
    <g id="st10Svg">
        <path
            d="M58.1631 119.618C56.5993 119.344 54.9793 118.601 54.0606 117.78C53.4369 117.126 53.081 116.261 53.0631 115.358C53.0631 114.439 53.5318 113.149 54.2743 111.863C54.7243 111.139 55.0768 110.359 55.3281 109.538C55.4856 108.971 55.8156 108.053 56.0706 107.468L56.5206 106.395L56.6368 99.2288C56.6968 95.265 56.8131 91.5938 56.9106 91.0238C57.1656 89.3812 57.5931 87.78 58.1593 86.22L58.5906 85.185L57.9643 84.8138C57.3981 84.4613 56.9293 83.9738 55.0731 81.765C52.7893 79.0687 49.7818 77.5837 45.5218 77.0775C44.1343 76.9425 42.7281 76.8413 41.3218 76.785C35.0706 76.4925 31.4968 75.1838 28.2756 72.0188C25.8718 69.6563 24.6231 66.9 24.1168 62.8388C23.4343 57.3488 22.6731 54.5363 21.2668 52.2525C20.9202 51.6885 20.5209 51.1586 20.0743 50.67L19.5081 50.1038L18.2593 50.9063C17.5768 51.3563 16.6168 51.9225 16.1481 52.1775C14.5843 53.0363 13.0993 53.9925 11.6743 55.0275C8.17932 57.5663 4.36932 60.75 2.28057 62.8388C1.34307 63.7763 0.855572 64.185 0.638072 64.1475C-0.786928 63.9338 0.304321 57.7612 2.62932 53.1113C5.59932 47.115 10.5981 41.5875 16.3806 37.8563C21.1281 34.7887 28.8043 30.57 32.3556 29.085C38.6631 26.4488 46.8268 23.595 52.4143 22.0725C53.5881 21.7388 54.3081 21.4463 54.7956 21.1163C55.8906 20.355 56.9631 19.9838 58.1931 19.965C59.2281 19.9463 59.3256 19.9275 60.3231 19.26C61.4968 18.4988 61.8456 18.4575 63.0193 18.87L63.7806 19.1438L64.7181 18.4988L65.6556 17.8725L67.0018 17.8913C68.0368 17.91 68.5056 17.8725 68.9556 17.6775C69.5218 17.4225 69.5406 17.385 69.6981 16.4475C70.0506 14.415 70.0881 13.3988 69.8743 12.1688C69.6006 10.5488 69.5631 4.26 69.8368 3.02625C70.1293 1.69875 70.3243 1.425 71.3218 0.9375C72.8068 0.21375 73.9206 0 76.4781 0C79.6018 0 81.1843 0.43125 82.3581 1.56375C83.4118 2.58 83.5881 4.96125 83.0406 10.5488C82.7068 13.77 82.6693 14.67 82.7668 16.7775C82.8043 18.1238 82.9018 19.395 82.9431 19.5713C83.0218 19.905 83.1006 19.9238 84.2331 19.9425C85.3468 19.9613 85.5418 20.0213 86.5956 20.5688C87.6118 21.0975 88.3731 21.7425 88.5306 22.2113C88.5493 22.3088 88.7256 22.3088 89.0368 22.2113C89.6406 22.035 90.1693 22.23 90.6006 22.7588C90.8556 23.0925 91.0093 23.1488 91.5981 23.1488C92.4006 23.1488 92.6931 23.3438 93.3568 24.3225C93.6673 24.7618 94.0929 25.1069 94.5868 25.32C95.6818 25.8675 97.1668 27.39 97.7331 28.6013C98.6106 30.3975 98.7868 32.4862 98.2393 34.3612C98.0443 35.0662 98.0443 35.085 98.4531 35.7675C99.3118 37.2337 99.6268 39.03 99.2743 40.5525L99.0793 41.4525L99.6643 42.0375C102.574 44.9475 102.143 49.695 98.5918 53.9325C98.1949 54.4165 97.8598 54.9481 97.5943 55.515C96.9118 57.33 96.1281 58.6013 95.1156 59.655L94.0806 60.7088H93.0268C91.9731 60.7088 90.4881 60.3563 89.5881 59.8875C89.2168 59.6925 89.1981 59.6925 89.2768 59.925C89.5131 60.7838 90.0981 64.2788 90.2931 66.2138C90.6043 69.1838 90.5068 73.5 90.0981 75.3563C89.7993 76.7311 89.2989 78.0541 88.6131 79.2825C88.2231 79.9088 88.2043 80.0438 88.2793 80.805C88.3956 81.8775 88.1443 83.6775 87.7131 84.8663C87.1843 86.2538 86.9893 86.8988 86.8731 87.6C86.7756 88.2038 86.7756 88.2038 87.2068 88.2038C87.7731 88.2038 88.0843 88.5375 88.0843 89.2012C88.0843 89.4938 87.8293 91.0763 87.5181 92.6963C86.6593 97.2488 86.5993 97.755 86.5993 102.169C86.5806 106.721 86.5806 106.68 87.6156 107.363L89.9406 108.866C91.9408 110.194 94.0828 111.294 96.3268 112.148C99.5893 113.438 100.039 113.768 100.039 114.863C100.039 115.35 99.9418 115.526 99.5331 115.916C98.2843 117.128 95.8206 117.401 90.8593 116.873C88.2813 116.631 85.6936 116.507 83.1043 116.501C76.2681 116.404 75.2706 116.168 74.3743 114.469C73.8681 113.494 73.9656 112.223 74.6668 110.134C74.9781 109.215 75.2518 108.278 75.4881 107.321C75.9568 105.056 75.6456 102.36 74.5506 99.315L73.6131 96.7163C72.6943 94.08 72.1881 89.2538 72.7356 88.1625C72.8331 87.9488 73.0093 87.9075 73.4781 87.9263L74.0631 87.9863L74.5506 86.97C74.9218 86.1675 75.3306 85.6425 76.4443 84.5288L77.8693 83.1038L77.7906 82.185C77.7306 81.3075 76.5793 77.0475 76.4218 77.0663C76.3618 77.0663 76.0506 77.4975 75.6981 78.0413C74.8393 79.3313 72.9456 81.3225 71.8693 82.0463C71.4006 82.3575 71.0106 82.7288 71.0106 82.8488C70.9918 83.3775 70.5418 84.4125 69.9943 85.1325C69.4656 85.8375 69.4281 85.9538 69.5068 86.5763C69.6418 87.495 69.3493 90.4425 69.0006 91.9875C68.6844 93.1347 68.2522 94.2467 67.7106 95.3063C66.3643 98.1 65.3481 100.598 65.0931 101.753C64.9089 102.865 64.7912 103.986 64.7406 105.113C64.6806 106.44 64.5456 107.73 64.4481 108.004C64.3131 108.375 64.3131 108.668 64.4293 109.234C64.5268 109.643 64.5868 110.561 64.5643 111.285C64.5456 112.283 64.6243 112.928 64.9168 114.098C65.4231 116.089 65.5206 117.341 65.2881 118.084C65.1306 118.553 64.9768 118.729 64.4481 118.984C63.2743 119.588 59.9556 119.921 58.1593 119.61L58.1631 119.618ZM62.9068 118.016C63.5893 117.821 64.1781 117.236 64.1781 116.708C64.1781 116.471 63.9831 115.789 63.7468 115.185C63.2781 114.034 62.4756 110.985 62.4756 110.479C62.4756 110.224 62.4943 110.205 62.8843 110.419L63.3156 110.655V110.108C63.253 109.603 63.1412 109.105 62.9818 108.623C62.6106 107.509 62.5731 107.49 60.2068 107.351L58.6056 107.273L58.0206 107.839C57.6989 108.17 57.417 108.537 57.1806 108.934C56.9256 109.44 56.8281 110.205 56.9856 110.378C57.0231 110.438 57.4168 110.378 57.8443 110.28C58.0981 110.204 58.3599 110.159 58.6243 110.145C58.6243 110.164 58.1931 110.516 57.6493 110.888C55.3056 112.646 54.4843 113.719 54.4843 115.088C54.4843 116.513 55.8306 117.626 57.9418 117.96C59.3856 118.174 62.1981 118.234 62.9031 118.02L62.9068 118.016ZM94.6843 115.691C95.2693 114.986 95.1906 114.266 94.4481 113.445C94.0168 113.014 93.5293 112.643 92.9818 112.35C92.4343 112.058 91.8868 111.724 91.3393 111.375C90.3491 110.733 89.3319 110.134 88.2906 109.579C87.3906 109.091 86.5131 108.581 85.6543 108.038L85.3018 107.764V102.394C85.3018 97.1025 85.2831 97.0238 85.0093 97.1025C83.6406 97.4738 81.3756 97.65 78.5068 97.59L75.4018 97.5525L75.8518 98.6475C76.6918 100.718 77.1231 103.493 77.1231 106.676C77.1231 107.869 77.0443 108.296 76.7518 109.136C76.5943 109.545 76.4593 109.958 76.3206 110.366C76.2606 110.543 76.4781 110.678 77.2768 110.914C77.8618 111.09 78.7206 111.266 79.2118 111.323L80.1118 111.42L80.0143 112.32C79.9168 113.336 80.0331 114.409 80.2881 114.743C80.4456 114.938 81.0306 115.016 83.7456 115.133C85.7968 115.23 88.0243 115.444 89.7793 115.699C91.3018 115.935 92.9443 116.13 93.4318 116.13C94.2531 116.149 94.3318 116.111 94.6806 115.699L94.6843 115.691ZM63.4168 106.553C63.4956 106.493 63.6118 105.439 63.6531 104.19C63.8106 100.695 63.9456 100.185 65.7043 96.24C67.1481 93.0188 67.9131 90.0113 67.8531 87.8813L67.8156 86.61L67.2681 87.1388C66.1356 88.2713 66.9156 86.4938 68.2656 84.9113C69.2818 83.7 69.6343 83.0363 69.7881 81.9638C69.8668 81.5325 70.0243 81.3188 70.6881 80.8125C73.1716 78.9364 75.0852 76.4074 76.2156 73.5075C76.4893 72.8025 77.1906 70.4025 77.7793 68.175C78.8743 64.0538 79.4593 62.2763 79.9881 61.515C80.1831 61.2225 80.2618 61.1625 80.2243 61.3575C79.9411 62.4049 79.7195 63.468 79.5606 64.5413C79.4031 65.4975 79.1106 67.3725 78.9156 68.6813C78.5443 71.3588 78.1543 73.0763 77.6256 74.4038L77.2731 75.3037L78.2106 77.7262C79.1856 80.205 79.6356 82.005 79.7143 83.7413L79.7743 84.7163L79.0131 84.8738C78.0083 85.0516 77.1117 85.6121 76.5118 86.4375C75.8481 87.3938 75.4768 88.1775 75.6531 88.35C75.7318 88.4288 76.6881 88.605 77.7831 88.74C79.4818 88.935 80.1268 88.935 82.3731 88.8C83.3481 88.7625 84.3081 88.665 85.2643 88.5263C85.4781 88.4475 85.6956 88.02 86.0443 86.9062C86.8468 84.3488 87.0006 83.4488 86.9031 81.6525L86.8243 80.07L87.2331 79.5413C88.1893 78.33 88.9318 76.1438 89.2431 73.5825C89.6143 70.4588 88.9318 63.915 87.6606 58.29C87.0568 55.6125 86.8018 54.0113 86.8018 52.8413V51.8063L85.8456 51.9038C82.4068 52.275 78.2481 52.1775 75.7093 51.6488C74.3218 51.375 70.8268 50.34 70.0656 50.0063L69.4618 49.7325L69.3831 50.415C69.3231 50.7863 69.2668 51.1575 69.1881 51.5475C69.0718 51.9562 69.1093 52.0537 69.8331 52.7588C70.7331 53.6775 71.0068 54.1463 71.0068 54.7688C71.0068 55.1588 70.7931 55.4738 69.6981 56.6063C68.913 57.444 68.0419 58.1969 67.0993 58.8525L65.8281 59.7113L65.2806 61.605C63.3268 68.5387 62.9556 74.8463 64.2456 79.3575L64.5568 80.49L63.9306 81.27C61.5868 84.2175 60.1993 86.4638 59.9856 87.7162C59.8606 88.333 59.7168 88.9458 59.5543 89.5538C59.0481 91.4888 58.6543 94.32 58.4818 97.3875C58.3616 99.9555 58.1928 102.521 57.9756 105.083L57.8781 105.844L58.8531 106.136C59.4006 106.313 60.2218 106.508 60.6906 106.586C61.5681 106.721 63.1918 106.684 63.4431 106.549L63.4168 106.553ZM82.3806 95.8088C83.9031 95.7113 85.2906 95.475 85.5643 95.2425C85.6806 95.1637 85.8193 94.755 85.8568 94.3425L85.9543 93.6L84.7431 93.8737C83.7868 94.0688 82.8306 94.185 81.8706 94.2638C79.5643 94.3613 77.2431 94.3013 74.9556 94.0688C74.1943 93.9525 74.1943 93.9525 74.4268 94.9463C74.6218 95.6888 74.6631 95.7262 76.6543 95.865C77.9818 95.9813 79.8381 95.9625 82.3768 95.805L82.3806 95.8088ZM81.1093 92.4113C83.1006 92.235 85.5831 91.8075 86.0706 91.5525C86.2281 91.4738 86.3631 91.1813 86.4231 90.8475L86.5993 89.8125L86.6968 89.325L86.2093 89.4225C84.0418 89.8725 82.3993 90.0075 79.1181 90.0075C75.9156 90.0075 75.5443 89.9888 74.7043 89.6963C74.3815 89.5602 74.0378 89.4803 73.6881 89.46C73.5531 89.5387 73.5306 90.6525 73.6506 91.4325C73.7293 91.9013 73.8081 91.98 74.2768 92.115C75.7618 92.5238 78.2631 92.6213 81.1131 92.3888L81.1093 92.4113ZM44.8618 74.7938C49.8606 73.35 56.4043 69.1088 61.7556 63.7988C63.4956 62.0588 63.7093 61.8263 63.9418 61.0463L64.2531 60.0488C64.2906 59.97 63.9793 59.835 63.5706 59.7375C62.4981 59.4825 61.6768 58.86 61.6768 58.2938C61.6768 57.96 61.4818 57.63 60.9156 57.0225C59.9968 55.9875 59.7643 55.5375 59.6668 54.5438L59.5881 53.7413L58.4931 52.9613C57.8668 52.5112 55.6806 51.3 53.3556 50.13C51.5853 49.2664 49.8525 48.328 48.1618 47.3175C46.2081 46.0088 44.8993 44.445 44.1568 42.5925C44.0218 42.2213 43.8456 41.91 43.7856 41.91C43.6281 41.91 39.2331 46.1475 37.3581 48.1388C32.7306 53.0213 29.5468 57.2588 27.5331 61.185C27.0268 62.16 26.4793 63.315 26.3218 63.7425L26.0293 64.5225L26.3818 65.8313C26.5956 66.5363 27.0456 67.6875 27.3981 68.37C28.6281 70.7925 30.0943 72.255 32.5168 73.4475C35.1156 74.7375 37.4181 75.1875 41.2656 75.1275C43.3356 75.1088 43.9431 75.0488 44.8581 74.775L44.8618 74.7938ZM5.40807 57.6638C8.68932 54.7538 13.2193 51.57 18.7693 48.27C22.4031 46.1025 36.4468 39.0713 42.9118 36.1988C44.0856 35.67 45.1393 35.1825 45.2556 35.1263C45.3718 35.0475 45.7056 34.2075 46.0168 33.27C47.3856 28.935 48.0681 28.0763 50.5468 27.51C50.8581 27.4313 50.9368 27.3338 50.9368 27.0225C50.9368 26.4563 51.3268 25.1475 51.6606 24.5625C51.9156 24.1125 51.9156 24.0938 51.6981 24.1538C51.5631 24.1913 50.7418 24.4275 49.8831 24.6825C37.9693 28.1213 27.5593 32.6888 18.5743 38.3925C8.98557 44.4863 3.45807 51.7912 1.85682 60.54L1.74057 61.185L2.91432 60.0337C3.54057 59.3887 4.67307 58.335 5.41557 57.69L5.40807 57.6638ZM93.7881 59.325C94.7443 58.8375 96.2293 56.5913 96.7768 54.8138C96.9343 54.1875 97.2456 53.6025 97.6956 53.115C99.1393 51.5138 100.332 48.6038 100.351 46.6125C100.351 43.5075 98.5918 42.315 96.0343 43.6425C95.7006 43.8 95.4306 43.9162 95.3893 43.8787C95.2543 43.7438 95.9743 43.0387 96.8556 42.4912C98.0068 41.73 98.2243 41.28 98.2243 39.66C98.2413 38.3506 97.8522 37.068 97.1106 35.9888C96.7581 35.46 96.6231 35.1112 96.6793 34.8937L97.0318 33.585C97.5193 31.845 97.3431 29.8538 96.5818 28.5863C95.4493 26.6738 94.0618 25.7363 92.1268 25.5788L90.9943 25.5L91.6581 26.2425C93.6306 28.3725 94.5868 31.0463 94.1968 33.3338C94.0018 34.5075 93.8256 34.74 92.6931 35.19L92.0293 35.4638L92.1081 36.3638C92.2431 37.83 91.9918 38.9025 91.0543 40.875C90.5856 41.8725 90.2331 42.7688 90.2743 42.8663C90.3906 43.2 91.6806 43.8225 92.6968 44.0775L93.6943 44.3138L93.0681 44.5275C92.2468 44.7825 92.0706 45.1538 92.0706 46.5C92.0706 47.73 92.2468 48.24 93.1431 49.5863C93.5518 50.1713 93.8256 50.7788 93.8668 51.1275C93.9456 51.675 93.9268 51.7125 93.4768 51.87C92.9667 52.0131 92.4422 52.0987 91.9131 52.125C90.0756 52.2413 89.9406 52.3013 89.1193 53.0813C88.3768 53.7863 88.3581 53.8238 88.3581 54.6038C88.3581 55.6763 88.7668 57.8475 89.0218 58.14C89.3556 58.4925 91.2081 59.4113 91.9318 59.5463C92.556 59.703 93.2159 59.627 93.7881 59.3325V59.325ZM66.7356 57.8625C67.9281 56.925 68.8656 55.9875 69.3906 55.185C69.7243 54.6975 69.7431 54.6 69.5856 54.1875C69.3118 53.5613 67.5156 51.9413 66.5181 51.4538C65.8534 51.156 65.1503 50.9527 64.4293 50.85L63.1993 50.6925L62.4381 49.7363C60.8556 47.7825 59.9781 46.26 58.7256 43.3088C57.6306 40.8075 56.6743 39.345 55.1518 37.8975C54.5256 37.3125 54.0793 36.825 54.1168 36.825C54.1956 36.825 54.9381 37.1963 55.7968 37.6463C57.2218 38.4075 57.3981 38.4675 58.0431 38.37C60.3681 38.0962 62.4193 35.4225 63.1618 31.6725C63.3756 30.6187 63.8068 29.5425 64.2568 28.8975C64.2756 28.8788 65.1756 29.4638 66.2293 30.225C68.9068 32.1188 69.4918 32.4113 71.0143 32.4712C72.0118 32.5088 72.5781 32.4338 74.3743 32.0025C78.2031 31.065 82.3431 30.6937 84.8631 31.0275C86.2881 31.2225 88.3393 31.8487 89.8618 32.5687C91.3656 33.2738 91.6581 33.3113 92.1456 32.88C92.5543 32.5275 92.5543 32.4712 92.5543 31.1625C92.5356 29.2275 91.8306 27.1388 90.7581 25.89C90.2106 25.245 88.6693 24.1913 87.1431 23.3888C86.6005 23.101 86.0605 22.8085 85.5231 22.5113C84.7993 22.08 83.9818 22.14 81.7543 22.725C79.1743 23.3888 78.4918 23.3888 75.5443 22.6275C73.0431 22.0013 72.8893 21.9825 70.4256 22.3725C69.1168 22.5675 65.8356 22.4513 64.7406 22.1588C64.1931 22.0013 63.6456 21.8475 63.1206 21.6525C62.1643 21.2813 60.5031 21.2213 58.9993 21.495C56.0106 22.0238 53.7456 23.6438 52.9243 25.8488C52.4931 26.9625 52.5531 27.4913 53.1193 27.84C54.0193 28.4063 55.2081 29.9513 55.2081 30.555C55.2081 30.5925 54.9156 30.3413 54.5818 29.9888C53.7418 29.1113 52.9806 28.7175 52.0806 28.7175C51.4983 28.7337 50.932 28.9122 50.4457 29.2328C49.9594 29.5535 49.5723 30.0036 49.3281 30.5325C49.0653 31.2225 48.8436 31.9275 48.6643 32.6438C48.1168 34.635 47.6293 35.6925 46.5943 37.0988C45.6756 38.37 45.5406 38.9363 45.8706 40.3613C46.6918 43.9538 48.1168 45.4012 54.0718 48.78C57.1956 50.5575 58.7968 51.555 59.9706 52.4325C60.8706 53.0963 60.8893 53.1375 60.8106 53.6437C60.6343 54.8175 61.3768 56.085 62.8431 57.12C63.2143 57.375 63.4468 57.6488 63.4468 57.8438C63.4468 58.1963 64.4443 58.6838 65.1643 58.6838C65.5731 58.6838 65.8881 58.5075 66.7281 57.8625H66.7356ZM90.8181 51.2775C93.0831 51.3563 93.1993 51.18 91.9918 49.7738C90.7206 48.3075 90.3718 47.1188 90.8406 45.81L91.0356 45.3037L90.2331 44.9137C89.9593 44.7788 89.6856 44.64 89.4118 44.5425C89.2768 45.0713 89.1381 45.5775 89.0218 46.1063C88.7293 47.2988 88.3768 50.385 88.3581 51.6938C88.3581 51.81 88.5531 51.7725 88.8868 51.5588C89.3556 51.285 89.5918 51.2475 90.8218 51.285L90.8181 51.2775ZM83.2206 51.1613C84.5893 51.0825 85.9956 50.985 86.3668 50.925L87.0493 50.8275L87.1281 48.5813C87.2443 45.3788 87.7131 43.485 89.1006 40.455C90.0756 38.3062 90.5068 36.4312 90.2931 35.025C90.2143 34.4212 90.1768 34.38 89.3556 34.0275C87.8518 33.4304 86.2857 33.004 84.6868 32.7563C83.1456 32.5425 78.6118 32.6587 76.9131 32.9925C76.2081 33.1087 74.9218 33.3825 74.0631 33.5963C71.9331 34.0838 70.8006 34.0275 69.1806 33.3225C67.5793 32.6175 66.5631 31.9763 65.6068 31.0763C64.8456 30.3713 64.7668 30.3337 64.5718 30.57C64.4143 30.7463 64.3356 31.275 64.2793 32.4075C64.2193 34.1475 63.9456 35.0625 63.1843 36.2925C63.0152 36.5456 62.8708 36.8143 62.7531 37.095C62.7531 37.155 63.3381 37.8375 64.0618 38.58C66.5631 41.1787 67.7931 41.8425 69.7656 41.7038C70.4106 41.6437 70.8606 41.6663 70.8606 41.7413C70.8606 41.8988 69.5893 42.8925 69.0643 43.1663C68.8093 43.3013 68.7531 43.44 68.7906 43.7325L69.1018 45.7838C69.2781 46.9575 69.4131 47.5013 69.5893 47.6588C70.0581 48.0488 72.4806 49.3013 74.0031 49.9238C75.9943 50.7263 77.0893 51.0188 78.6118 51.1538C80.4868 51.3113 80.5243 51.3113 83.2206 51.1538V51.1613ZM67.0693 49.0125C67.1068 48.9525 66.9718 47.82 66.7168 46.5113C66.4056 44.7338 66.2293 44.0888 66.0343 43.9125C65.8993 43.7963 65.1756 43.2863 64.4518 42.7613C63.5009 42.0775 62.5999 41.3268 61.7556 40.515L60.4093 39.1875L59.6856 39.5588L58.9243 39.9675C58.9884 40.2726 59.0931 40.5677 59.2356 40.845C59.4493 41.3138 59.8806 42.465 60.1918 43.4025C61.0131 45.8438 61.6581 47.0175 63.2781 49.1438L63.8818 49.9463L65.0331 50.1225C65.6781 50.22 66.3231 50.3587 66.4993 50.415C66.7731 50.5312 66.8106 50.475 66.8893 49.8488C66.9268 49.575 66.9868 49.2825 67.0656 49.0088L67.0693 49.0125ZM91.8156 24.7163C92.8131 24.6188 92.9893 24.48 92.5581 24.0338C92.2843 23.76 91.6581 23.7413 91.1518 23.9738C90.8181 24.1313 90.7431 24.09 90.2143 23.5238C89.6668 22.92 89.6293 22.8975 88.9431 22.9763C88.3168 23.055 88.2193 23.0363 88.1406 22.7813C87.8967 22.3624 87.5936 21.9809 87.2406 21.6488C86.797 21.1447 86.2424 20.7506 85.6206 20.4975C84.4093 20.0288 83.7268 20.0888 82.5718 20.7338C79.2306 22.5488 79.3693 22.53 76.1443 21.7088C73.1368 20.9475 70.8906 20.1675 70.1668 19.6763C69.5631 19.2675 68.2731 18.8175 67.1968 18.6788C66.3943 18.5625 65.8881 18.7388 65.1268 19.3613L64.7181 19.695L65.0893 20.34C65.5956 21.24 65.5393 21.2963 64.7781 20.6325C63.9568 19.95 62.9818 19.4813 62.3556 19.4588C61.9056 19.4588 60.5781 20.0438 60.4206 20.2988C60.3606 20.3775 60.7731 20.475 61.3206 20.5125C61.8868 20.5725 62.6668 20.7675 63.1956 20.9813C64.5643 21.5663 65.2656 21.7613 66.5143 21.8813C67.8831 22.0163 70.3618 21.8625 70.6543 21.6263C70.8118 21.4913 71.2393 21.4688 72.1393 21.5475C73.3318 21.6263 73.8193 21.7425 76.6506 22.5038C78.2931 22.9538 79.4443 22.9125 81.3981 22.3875C82.2981 22.1325 83.4306 21.8813 83.8993 21.8213C84.7018 21.7425 84.8556 21.7838 86.1081 22.35C88.0993 23.25 89.1568 23.8163 89.7418 24.3413C90.3268 24.8475 90.4056 24.8475 91.8118 24.7313L91.8156 24.7163ZM80.6818 21.3L81.8743 20.6738L81.8368 19.4625C81.8181 18.6225 81.7768 17.8013 81.7393 16.9838L81.6418 15.735L80.4493 16.6538C79.7443 17.2013 79.0618 17.61 78.7693 17.67C77.9106 17.8275 73.6731 17.67 73.2793 17.4563C72.7548 17.0688 72.2642 16.6372 71.8131 16.1663L70.7181 15.0525L70.6993 15.7163C70.6993 16.0688 70.6618 16.6725 70.5831 17.0438C70.4856 17.7488 70.4856 17.7675 71.2468 18.7238C71.6556 19.2525 71.9893 19.7213 71.9893 19.7775C71.9893 20.1488 77.6331 21.9075 78.9043 21.9263C79.3131 21.9263 79.8231 21.75 80.6818 21.3ZM78.4168 16.8638C79.8231 16.59 80.5056 15.5738 81.0343 12.9975C81.5818 10.2225 81.8556 5.86875 81.6006 4.0125C81.3643 2.3325 79.4893 1.59 75.9156 1.70625C73.6881 1.785 72.7693 1.99875 72.0081 2.64375C71.5393 3.03375 71.5393 3.075 71.3256 4.9275C70.9356 8.4825 71.5206 13.5413 72.5368 15.435C73.0243 16.3538 73.4556 16.6838 74.3518 16.8413C75.3681 17.0175 77.5356 17.0175 78.4131 16.86L78.4168 16.8638Z"
            fill="black" />
    </g>
    <g id="st11Svg">
        <path
            d="M94.5436 10.322L74.3626 0.605968C73.223 0.0564614 71.9406 -0.124876 70.6932 0.087093C69.4458 0.299062 68.2953 0.893837 67.4011 1.78897L1.33865 62.017C0.537114 62.7443 0.0573204 63.7602 0.00481051 64.8412C-0.0476994 65.9223 0.331375 66.9799 1.05865 67.7815C1.14615 67.876 1.23365 67.967 1.32815 68.051L6.72165 72.951C7.42642 73.5924 8.33359 73.9667 9.28562 74.0089C10.2376 74.0511 11.1744 73.7585 11.9331 73.182L91.5056 12.842C92.1067 12.3859 92.8231 12.1066 93.5742 12.0356C94.3254 11.9646 95.0814 12.1047 95.7572 12.4401C96.4331 12.7754 97.0019 13.2928 97.3997 13.9339C97.7974 14.5751 98.0083 15.3145 98.0086 16.069V15.8345C98.0086 14.6826 97.6833 13.5542 97.0704 12.579C96.4574 11.6038 95.5816 10.8215 94.5436 10.322Z"
            fill="#0065A9" />
        <path
            d="M94.5436 87.112L74.3626 96.8315C73.2226 97.3795 71.9406 97.5599 70.6936 97.348C69.4466 97.1361 68.2962 96.5423 67.4011 95.6485L1.33865 35.417C0.537114 34.6897 0.0573204 33.6738 0.00481051 32.5927C-0.0476994 31.5117 0.331375 30.4541 1.05865 29.6525C1.14615 29.558 1.23365 29.467 1.32815 29.383L6.72165 24.483C7.42713 23.8389 8.33639 23.4629 9.29076 23.4207C10.2451 23.3785 11.184 23.6727 11.9436 24.252L91.5056 84.592C92.1067 85.0481 92.8231 85.3273 93.5742 85.3983C94.3254 85.4693 95.0814 85.3293 95.7572 84.9939C96.4331 84.6585 97.0019 84.1411 97.3997 83.5C97.7974 82.8589 98.0083 82.1195 98.0086 81.365V81.617C98.0049 82.7658 97.6779 83.8903 97.0652 84.862C96.4524 85.8338 95.5786 86.6135 94.5436 87.112Z"
            fill="#007ACC" />
        <path
            d="M74.3625 96.8315C73.2224 97.3794 71.9404 97.5599 70.6934 97.348C69.4464 97.1361 68.296 96.5422 67.401 95.6485C67.9036 96.1445 68.5414 96.4812 69.2346 96.6163C69.9277 96.7514 70.6453 96.679 71.2974 96.408C71.9496 96.1371 72.5072 95.6797 72.9006 95.0932C73.2939 94.5067 73.5053 93.8171 73.5085 93.1109V4.32295C73.5091 3.61346 73.299 2.91976 72.9051 2.32972C72.5111 1.73969 71.9508 1.27986 71.2953 1.0085C70.6397 0.737135 69.9184 0.666445 69.2226 0.805381C68.5269 0.944318 67.888 1.28663 67.387 1.78895C68.2813 0.894147 69.4316 0.299335 70.6787 0.0867766C71.9258 -0.125781 73.2082 0.0544182 74.3485 0.602454L94.526 10.3045C95.5671 10.8015 96.4466 11.5827 97.0628 12.5581C97.679 13.5335 98.0068 14.6632 98.0085 15.817V81.617C98.0087 82.7698 97.6833 83.8992 97.0696 84.8751C96.456 85.851 95.5791 86.6337 94.54 87.1329L74.3625 96.8315Z"
            fill="#1F9CF0" />
    </g>
    <g id="st12Svg">
        <path fill-rule="evenodd" clip-rule="evenodd"
            d="M44 0C19.69 0 0 19.69 0 44C0 63.47 12.595 79.915 30.085 85.745C32.285 86.13 33.11 84.81 33.11 83.655C33.11 82.61 33.055 79.145 33.055 75.46C22 77.495 19.14 72.765 18.26 70.29C17.765 69.025 15.62 65.12 13.75 64.075C12.21 63.25 10.01 61.215 13.695 61.16C17.16 61.105 19.635 64.35 20.46 65.67C24.42 72.325 30.745 70.455 33.275 69.3C33.66 66.44 34.815 64.515 36.08 63.415C26.29 62.315 16.06 58.52 16.06 41.69C16.06 36.905 17.765 32.945 20.57 29.865C20.13 28.765 18.59 24.255 21.01 18.205C21.01 18.205 24.695 17.05 33.11 22.715C36.63 21.725 40.37 21.23 44.11 21.23C47.85 21.23 51.59 21.725 55.11 22.715C63.525 16.995 67.21 18.205 67.21 18.205C69.63 24.255 68.09 28.765 67.65 29.865C70.455 32.945 72.16 36.85 72.16 41.69C72.16 58.575 61.875 62.315 52.085 63.415C53.68 64.79 55.055 67.43 55.055 71.555C55.055 77.44 55 82.17 55 83.655C55 84.81 55.825 86.185 58.025 85.745C66.7597 82.796 74.3497 77.1822 79.7268 69.6937C85.1039 62.2052 87.9974 53.219 88 44C88 19.69 68.31 0 44 0Z"
            fill="black" />
    </g>
</svg>