<svg width="17" height="27" viewBox="0 0 17 27" fill="none" xmlns="http://www.w3.org/2000/svg">
<path d="M3.04688 0C2.23879 0 1.46381 0.321009 0.892409 0.892409C0.321009 1.46381 0 2.23879 0 3.04688V23.2031C0 24.0112 0.321009 24.7862 0.892409 25.3576C1.46381 25.929 2.23879 26.25 3.04688 26.25H13.8281C14.6362 26.25 15.4112 25.929 15.9826 25.3576C16.554 24.7862 16.875 24.0112 16.875 23.2031V3.04688C16.875 2.23879 16.554 1.46381 15.9826 0.892409C15.4112 0.321009 14.6362 0 13.8281 0H3.04688ZM6.5625 20.625H10.3125C10.5611 20.625 10.7996 20.7238 10.9754 20.8996C11.1512 21.0754 11.25 21.3139 11.25 21.5625C11.25 21.8111 11.1512 22.0496 10.9754 22.2254C10.7996 22.4012 10.5611 22.5 10.3125 22.5H6.5625C6.31386 22.5 6.0754 22.4012 5.89959 22.2254C5.72377 22.0496 5.625 21.8111 5.625 21.5625C5.625 21.3139 5.72377 21.0754 5.89959 20.8996C6.0754 20.7238 6.31386 20.625 6.5625 20.625Z" fill="white"/>
</svg>
